/* XPM */
static char *result[] = {
/* columns rows colors chars-per-pixel */
"64 64 191 2 ",
"   c #010302",
".  c #0B0204",
"X  c #030B01",
"o  c #040309",
"O  c #0B010D",
"+  c #000B0C",
"@  c #0B0B0B",
"#  c #130006",
"$  c #1B0007",
"%  c #140008",
"&  c #1B0009",
"*  c #110E0D",
"=  c #051300",
"-  c #081700",
";  c #051C00",
":  c #091B00",
">  c #02110D",
",  c #0D0111",
"<  c #000E11",
"1  c #12021A",
"2  c #001214",
"3  c #0C1112",
"4  c #00161A",
"5  c #00191D",
"6  c #141212",
"7  c #1A1818",
"8  c #24000E",
"9  c #390016",
"0  c #231F1F",
"q  c #052100",
"w  c #0B2300",
"e  c #0D2C00",
"r  c #112B00",
"t  c #0D3300",
"y  c #0E3B01",
"u  c #113401",
"i  c #123C02",
"p  c #001D23",
"a  c #001F29",
"s  c #2B0332",
"d  c #002125",
"f  c #00242A",
"g  c #00292E",
"h  c #002A33",
"j  c #002C33",
"k  c #003037",
"l  c #00333B",
"z  c #282425",
"x  c #312E2D",
"c  c #3A3838",
"v  c #450119",
"b  c #4D0122",
"n  c #550021",
"m  c #6D012D",
"M  c #770136",
"N  c #0F4301",
"B  c #134401",
"V  c #154B02",
"C  c #194903",
"Z  c #155402",
"A  c #1A5303",
"S  c #165B01",
"D  c #1B5B03",
"F  c #215805",
"G  c #1C6304",
"H  c #176902",
"J  c #1D6B03",
"K  c #157002",
"L  c #1D7403",
"P  c #1E7C04",
"I  c #226105",
"U  c #226C05",
"Y  c #296D06",
"T  c #227405",
"R  c #297607",
"E  c #237C04",
"W  c #2A7C06",
"Q  c #390451",
"!  c #003640",
"~  c #003B43",
"^  c #003F49",
"/  c #49065C",
"(  c #560A6B",
")  c #670E71",
"_  c #70107D",
"`  c #00434C",
"'  c #004650",
"]  c #004B55",
"[  c #004F5A",
"{  c #00525C",
"}  c #005661",
"|  c #005964",
" . c #005E69",
".. c #00626E",
"X. c #006572",
"o. c #006A75",
"O. c #006D7A",
"+. c #00727D",
"@. c #474546",
"#. c #565555",
"$. c #696969",
"%. c #767676",
"&. c #810538",
"*. c #8B033D",
"=. c #94053E",
"-. c #930441",
";. c #9A0545",
":. c #A7054A",
">. c #B70653",
",. c #CC0D56",
"<. c #D80D5C",
"1. c #E50F60",
"2. c #EE1064",
"3. c #F21065",
"4. c #1E8603",
"5. c #1F8B03",
"6. c #1E9303",
"7. c #1F9A02",
"8. c #238404",
"9. c #258C04",
"0. c #2A8B06",
"q. c #2C8907",
"w. c #328908",
"e. c #249504",
"r. c #2B9506",
"t. c #259A04",
"y. c #2C9B06",
"u. c #2F9A08",
"i. c #319507",
"p. c #329C07",
"a. c #349308",
"s. c #389509",
"d. c #349C08",
"f. c #399D09",
"g. c #29A106",
"h. c #2DA206",
"j. c #33A307",
"k. c #38A307",
"l. c #34A907",
"z. c #3AAA07",
"x. c #36A308",
"c. c #3AA309",
"v. c #36A908",
"b. c #3BAA09",
"n. c #3DB009",
"m. c #42A30B",
"M. c #41AC0A",
"N. c #590983",
"B. c #761285",
"V. c #660A91",
"C. c #780FA3",
"Z. c #007582",
"A. c #007985",
"S. c #007C8A",
"D. c #87159D",
"F. c #8B14A5",
"G. c #9518AA",
"H. c #9B1AAE",
"J. c #9E1BB1",
"K. c #A01CB3",
"L. c #00818E",
"P. c #008492",
"I. c #008898",
"U. c #008C9B",
"Y. c #00909E",
"T. c #008FA0",
"R. c #0093A4",
"E. c #0097AA",
"W. c #009AAC",
"Q. c #009EB2",
"!. c #00A2B6",
"~. c #00A5BA",
"^. c #00A9BE",
"/. c #00ADC2",
"(. c #00B0C6",
"). c #00B5CB",
"_. c #00B8CF",
"`. c #00BDD5",
"'. c #00BFD8",
"]. c #00C0D7",
"[. c #00C1D9",
"{. c #868686",
"}. c #9A9A9A",
"|. c #A7A9A9",
" X c #B6B8B8",
".X c #CBCBCC",
"XX c #D7D7D8",
"oX c #E2E2E2",
"OX c #EBEBEB",
"+X c #F4F4F4",
"@X c #FAF9F9",
/* pixels */
"m.d.u.u.d.e.6.e.r.u.d.d.i.d.d.d.j.l.j.y.y.t.e.r.r.f.m.k.s.p.h.l.k.M.l.y.h.k.k.p.i.h.h.j.i.u.s.V X w J y.d.y.u.d.u.y.r.r.y.r.e.i.",
"m.s.r.y.d.e.6.9.r.u.r.d.r.i.d.y.p.j.j.y.y.y.y.r.r.r.k.k.j.i.g.h.z.b.v.g.y.j.l.j.j.y.l.d.d.y.T :     y 0.h.y.j.d.p.y.y.y.r.r.y.u.",
"c.s.e.e.y.e.6.e.r.r.r.d.r.d.f.j.p.j.j.y.r.r.p.y.e.9.y.k.j.p.y.j.l.z.n.7.r.p.j.j.j.y.l.p.k.9.i   #   w 8.h.p.z.m.i.y.i.p.e.e.y.y.",
"f.s.u.r.e.e.6.e.r.r.u.d.r.u.x.y.y.k.j.y.r.e.y.u.r.r.u.j.l.y.y.j.l.h.n.t.e.t.j.j.p.y.k.y.d.J = # b # q 9.j.j.m.m.p.y.j.p.e.y.i.y.",
"f.f.i.t.y.e.6.e.e.r.d.d.r.u.j.t.r.j.d.d.d.e.e.j.r.u.i.j.j.y.y.h.j.g.l.h.e.t.g.j.p.t.b.j.r.y   9 m % q 9.j.h.b.c.y.u.d.h.e.y.d.p.",
"d.s.i.u.y.r.e.e.e.r.d.i.r.i.c.p.p.d.j.f.d.e.e.y.u.y.k.d.p.p.t.y.p.y.j.h.t.t.t.p.l.h.j.u.T = % M M O ; 8.u.j.b.b.u.i.k.p.t.i.d.d.",
"s.r.u.i.y.y.y.r.e.e.d.f.d.f.f.i.r.a.0.a.f.y.y.y.y.i.z.f.i.t.u.u.y.p.h.h.t.y.e.t.j.l.j.r.B X 9 ;.*.% q 4.h.j.m.m.l.i.f.p.y.y.d.d.",
"y.t.e.0.8.9.0.r.r.e.y.f.s.w.F B u u u C w.j.j.d.d.p.f.m.u.y.u.h.t.j.y.h.h.t.e.t.y.j.h.E ; # M >.-.% q 4.y.p.m.b.p.j.j.u.u.u.p.f.",
"t.4.J B u t i D W 9.r.w.A - X o > >   = I c.l.f.m.j.p.f.u.y.y.y.y.y.t.p.u.u.g.t.y.t.e.V o . M >.:.% q 8.y.p.m.p.t.y.d.p.y.p.j.i.",
"8.y = X + > +   : B U i X + f ] X. .+ X R j.l.k.z.j.y.y.u.u.p.t.t.y.t.h.u.f.j.y.y.t.P w     8 *.-.% q 8.h.d.f.e.e.e.y.j.p.j.k.j.",
"F X   d ` ..[ g <   X   4 O.!.(./.X.+ r a.u.h.l.z.d.y.y.h.h.d.y.r.e.y.p.h.c.c.y.y.r.V X o ,   % 9   ; 5.j.j.y.e.5.6.y.j.c.c.b.j.",
"Y = < ..P.^.).~.A.l < 5 +.).].[.!.g X F f.l.h.k.k.p.j.j.p.y.p.s.e.t.i.u.y.d.f.d.y.W : o Q ( Q ,     q 4.j.d.y.y.6.e.p.l.c.d.j.h.",
"q.w + ] P.~.`.`._.!.Z.A.(.`.`.)...+ w q.z.j.y.l.l.y.y.p.p.y.y.s.8.8.T G G I F U U V o 1 N.C.C._ 9   ; 4.y.d.j.y.t.y.s.l.x.p.u.h.",
"0.A X 2 ..R.).`.'.'._._.`.`.`.P.5 X D y.k.l.y.j.l.y.y.y.9.P I B w X X X X X X X =   o Q V.F.J.G.) , q 0.h.j.l.p.t.t.y.h.x.j.y.g.",
"e.q.e   d O.Q._.`.`.'.`.`.`.U.f   i 9.j.j.z.j.d.l.u.0.U y = X + 2 2 5 a l l k g o   1 ( C.H.J.J.B., q r.h.i.j.j.u.t.t.y.u.j.h.g.",
"y.p.L w   p  .E.(.`.`.`._.T.g   w E y.p.j.M.b.c.0.G u X o + p ' Z.E.~.~./././.T.p   s V.F.J.J.J._ , ; 0.h.p.j.u.h.y.t.g.h.l.l.h.",
"t.l.y.T w   + k ..E.).`./.~   w T t.y.i.j.m.c.W i = o 2 l S.!./._.'.[.].'.].`.A.2   O / G.K.J.H._ , X D 9.y.j.p.b.y.t.t.g.l.l.y.",
"t.l.l.t.L y = X + h U.(.~.h X F y.t.t.y.j.f.F :   < ` S.~._.].].`.'.`.`.`.'.!.l   %   1 ( D.J.J._ ,   X i T d.z.k.l.y.t.g.l.l.j.",
"y.l.v.y.e.9.L i   + +.E.~.` X D i.t.e.e.0.C = o d o.W._.].`.`.`.`.`.`.`.`.`.A.2 $ M v # % s D.D._ ,   +   w T z.z.b.l.y.l.l.l.l.",
"u.g.l.t.e.g.j.J X 2 +.U./.O.+ e r.t.e.8.i X + ` S./.`.`.`.`.`.`.`.`.`.`.'.~.~   v :.:.m & # 1 / ( O + ' a   - Y k.l.h.l.l.l.h.j.",
"l.g.g.g.y.j.j.J X 2 +.U._.W.p X D 9.4.y   2 ] U.(.`.`.`.`.`.`.`.`.`.`.`.`.P.2 & -.>.<.<.=.v # X .   2 O.+.l + : Y l.h.j.z.l.t.u.",
"b.l.h.h.j.b.h.G X 5 Z.R._._.X.< = V y X 2 { U.(.`.`.`.`.`.`.`.].`.'.`.'._.X.+ 8 -.>.1.2.1.,.*.v %   2 +.Y.W.] + : T u.j.z.b.g.y.",
"b.p.h.u.j.c.u.G X a +.R.).`./.[ 2 X   2 ..U.(.`.`.`.`.`.`.`.`.`.`.`.`.`.`.A.4 . v -.,.1.2.3.1.,.&.# > +.Y._.!.` o e E u.l.v.h.y.",
"f.j.j.i.d.c.y.S X d Z.E._.`.'.!.^   2 X.^.)._.`.`.`.`.`.`.`.`.`.`.`.`.`.`./.X.4   & n -.>.,.,.:.n . 4 +.R._.].W.l   u 9.g.l.h.g.",
"j.l.j.i.r.p.i.Z X d A.E._.`.`.Q.f   [ /.`.`.`.`.`.`.`.`.`.].`.].`.'.`.`.'.`.(.S.k < o % $ $ 8 # . 2 ] T./._.`.`.U.5 X Z e.h.y.y.",
"u.l.l.u.y.e.9.A X d Z.E._.].)...+ p E.`.`.`.`.`.'.`.`.`.`.`.`.`.`.`.`.`.`.`.'._.!.A.' p 4 2 4 d ' A.^.`.`.`.`.`.).X.+ ; P y.u.h.",
"t.j.k.j.i.t.9.A X f Z.R._.`.E.5 + O._.`.`.`.`.`.'.`.`.`.].`.].`.`.`.`.`.`.`.`.`.'._./.~.!.E.!.^./.`.`.`.`.`.`.`.`.!.l   N r.j.j.",
"y.j.k.k.y.r.6.S X d +.R.).`.U.d ! ~.`.`.`.`.'.`.`.`.`.'.`.`.`.`.`.`.'.`.`.`.`.`.`.'.[.'.].].].].'.`.`.`.`.`.`.`.`.`.S.2 = P p.x.",
"h.d.j.j.t.u.r.S X p Z.R.).].(.U.Q.`.`.`.`.`.`.`.`.`.].`.`.`.`.`.`.`.`.`.`.`.`.`.`.`.`.`.`.`.`.`.`.`.`.'.`.`.`.`.`.].^.l X V r.h.",
"y.u.j.i.e.r.y.G X 4 +.Y.).].`.`.`.`.`.'.`.`.`.`.`.`.`.`.`.`.`.`.`.`.`.`.`.`.`.`.`.`.`.`.`.`.`.`.`.`.`.`.`.`.`.`.`.`._.Z.+ : 9.g.",
"g.p.y.y.y.y.p.U X 2 +.Y.).].`.`.`.`.`.`.`.'.`.`.`.`.`.`.`.`.`.`.`.`.'.`.`.`.'.`.`.`.`.`.`.`.`.'.`.`.`.`.`.`.`.`.`.`.].Q.5 X T u.",
"h.l.t.u.y.e.i.W X < +.U.(.].`.`.`.`.`.`.`.`.`.'.`.'.`.`.`.'.`.`.`._._.`.`.`.`.`.`.`.`.`.`.`.`.`.`.`.`.`.`.'._._.`.`.].(.` + A y.",
"h.j.y.t.r.y.j.q.= > o.Y.^.`.`.`.`.]._.`.]._.`.`.].`.`.`.`.`.`.`.W.A.+.E.).`.`.`.`.`.`.`.`.`.`.`.`.`.`.`._.E.A.Z.T.).`._.O.< r i.",
"h.h.7.t.y.r.y.0.: + ..P.~.`.`.`.`.].].].].`.].`.`.`.`.`.`.`.`.U.f + + a +._.`.`.`.].`.].].`.`.].`.`.`.`.I.f < < a Z._.].T.2 - q.",
"y.y.6.6.e.r.t.0.e + { L.~.`.`.`.].`.].].].`.`.].`.`.`.`.`.`./.l . x c o d !.].`.`.`.`.`.`.].`.`.`.`.]./.!   x c . d !.[.!.5 X T ",
"p.t.6.6.e.i.d.0.u + ` L.!._.`.`.`.`._.].`.`.`.`.].`.`.`.`.].~.4 6 |. X7 < U.`.`.`.`.`.`.`.`.`.`.`.`.].!.4 7 |. X7 + R.].^.h X G ",
"j.e.t.t.e.p.c.r.V X k A.E._.].`.`.`.].`.].`.`.`.`.].`.`.`.].^.d @ $.%.* 4 Q.`.`.`.`.'.`.`.`.`.`.`.`.'.~.a @ $.%.* 5 Q.[.^.~ X A ",
"u.e.r.p.i.d.f.u.G X p Z.Y._.].`.`.`.`.`.`.`.`.].`.`.`.`.`.]._.O.5 @ 3 < { /.`.`.`.`.`.`.`.`.`.`.`.`.'.).O.4 @ 3 2 | (.]./.` + V ",
"e.r.t.y.k.d.p.e.T = < o.U.(.`.`.`.`.`.].`.`.`.].`.`.].`.`.`.`.(.A.` ~ O.^.`.`.`.`.`.`.`.'.`.`.`.`.`.`.`./.A.^ ~ O./.`.'./.' = B ",
"e.r.r.d.k.k.u.6.8.: + | P.~.`.`.`.`.`.`.].`.`.`.`.].`.`.`.`.].`.Q.I.P.E._.`.`.`.`.`.`.`.`.`.`.`.`.`.`.`.`.Q.I.P.E._.`.'./.^ = V ",
"e.r.y.y.c.f.j.6.8.i + ~ S.Q._.].`.`.`.`.`.`.`.`.`.].`.].`.`.].^.! 2 2 f W.].].`.`.`.`.`.[.'.'.`.`.`.[.[./.l 2 < h Q.'.'./.k X A ",
"i.r.d.h.d.c.c.t.6.D X p +.E.).].`.`.`.`.].`.`.].`.`.`.`.`.`.].^.' 4 2 l Q.)./._.`.`.`._.~.).`.`.`.`./././.` 4 4 l !.'.].~.a X G ",
"i.u.d.y.f.x.c.d.e.T - 2 X.U.(.`.`.`.`.`.`.`.`.`.].`.].`.`.`.`.`./.^.~./.(...j U.'.[.`.A.j o._.].'.W.j ] /./.~.~./.`.`.'.Q.4 X P ",
"d.i.d.u.c.j.d.d.y.q.r o ' L.!.`.].`.`.`.`.`.`.].`.`.`.`.`.`.`.`.[.[.].].).] o ^ T.~.U.j   p S.~.E.[ o l /.[.].].].'.`._.I.2 : 8.",
"i.s.j.u.x.x.c.y.t.r.F   d +.E.(./._.`.`.`.`.].`.`.`.`.`.`.`.`.`.'.`.`.`.`.S.5   2 4 < @ 6 @ + 4 4 o < +._.`.`.`.`.`.`.). .+ t q.",
"j.d.f.s.d.c.x.u.y.y.W - + ..L...^ R.`.`.`.`.`.`.].`.].`.].`.`.`.`.`.`.`.'./.^   @ 7 z #.}.$.z 7 *   f !.].`.`.`.`.`.].^.l + Z r.",
"d.p.d.d.y.p.u.y.r.y.0.y   l X.5 > L._.].]._.]._.`.`.`.`.`.`.`.].`.'.`.`.'.).{ 3 #. X.XoXOXoXXX X%.3 l /.].`.`.`.`.`.`.T.4 = L r.",
"b.p.d.s.t.y.t.t.r.u.u.J = 2 ` o 4 Q.].`.`.].].].`.].`.].`.`.`.`.`.`.`.`.`._.X.< #.oX@X@X+X@X@XOX{.3 ' (.`.`.`.`.`.'.(.} + t 8.e.",
"m.j.d.r.t.y.y.y.p.i.p.9.t   +   ~ /.'.`.`.`.`.`.`.`.`.`.].`.`.].`.`.`.`.`._.Z.< @.XX@XOX+X+X+XoX$.@ } ).`.`.`.`.`.`.E.p X G r.u.",
"m.d.d.r.6.r.j.d.p.d.d.e.H =   +  ./.`.`.`.`.`.`.'.`.`.`.`.`.`.`.`.`.`.`.`.`.U.< 0 XX@X+X+X+X@XoX@.+ O._.`.`.`.`.`.). .+ w w.i.r.",
"f.p.d.t.6.t.z.j.j.j.y.e.K -   l S.~.`.`.`.`.`.`.`.].`.`.`.`.`.'.`.`.`.`.`.'.Q.4 7  X+X+X+X+X@X.X0 < I.`.`.`.`.`.`.R.5 X D y.i.u.",
"d.y.x.u.6.y.j.z.j.y.r.E t   5 o.E.).`.`.`.`.`.'.`.`.`.`.`.'.`.`.`.`.`.`.`.'./.k 6 {.OX+X+X+X+X|.6 4 Q.`.`.`.`.`.~.`   X U p.p.p.",
"u.r.d.h.e.t.j.j.l.r.L t   4  .R.(.`.`.`.`.`.`.`.`.`.`.`.`.`.`.`.`.`.`.`.`.'.). .3 #.oX+X+X+XOX%.3 ^ /.'.`.`.`.).X.+   X A r.d.f.",
"e.y.d.j.g.y.h.l.r.S :   2  .E.).`.`.`.`.`.`.`.`.`.`.`.`.`.`.`.`.'.`.`.`.`.`.`.T.4 7  X+X+X+X.Xz < A._.`.`.`._.A.5   2   e q.j.k.",
"t.y.k.j.h.g.l.p.V = o d o.Q._.`.`.`.`.`.`.'.`.`.`.`.`.`.`.`.`.`.`.].`.].`.`.'./.` + @..XOXXX$.. f !.'.`.`.`.P.p   j { 2 X U p.l.",
"y.j.M.k.l.g.l.0.-   l +.~._.`.`.`.`.`.`.`.`.`.`.^.P.E.`.`.`.`.`.`.`.`.`.`.`.`.`.U.d . @.%.#.6 4 A.`.`.`._.S.p   d O.A.j   u q.j.",
"y.l.M.M.l.h.k.s.w   5  .E._.].].`.`.`.`.`.'.'.~.[ 5 { /.`.`.`.`.`.`.`.`.'.`.`.`.).A.p + 3 @ 5 X./.`.`./.Z.5   d X.L.L...> X D y.",
"g.l.M.b.h.u.x.k.U w   < l Z.!.).`.].].'.`.).R.` + < A._.`.`.`.`.`.].`.`.`.`.`.`.`._.R.| ` | I.).`.`.Q.| 2   f X.P.L.L.L.l X w E ",
"7.g.b.x.l.h.j.j.s.E i =   < h  .U.!.~.Q.P.} 5     d U.).`.'.`.`.`.`.`.`.`.`.`.`.`.`.`.)./.).'.'./.A.g + < ~ O.P.P.P.P.L.X.< X A ",
"7.t.p.j.h.p.y.h.d.d.0.J t = X + 2 4 4 4 < + X - = o p  .E./.`.`.].`.`.`.`.`.`.`.`.'.'.[.]._.~.S.^ 2   + ` +.P.P.P.L.L...l   - U ",
"7.t.y.y.y.u.y.u.p.p.p.t.9.T Z e - X X X - u F 8.J e X + 5 ] S.Q.^.).).`.`.`.'.`.`.)./.~.T.X.h < X X     g ] ..X...[ j <   - A r.",
"g.y.t.y.u.g.t.y.p.u.y.i.t.t.e.r.0.8.J K 8.a.u.y.d.q.D e = + < 5 ! | +.L.T.R.T.I.A.X.] f 4 + X - B A t X + o + + + + + X e H r.d.",
"u.p.j.y.u.y.t.t.p.y.y.d.y.r.t.x.h.h.t.6.y.x.t.r.d.d.u.8.H N : = X > 2 2 2 2 4 2 2 > + X = e A 4.9.u.0.U B w - X : w B J 0.r.e.i.",
"j.p.c.h.u.d.t.t.u.t.t.s.d.u.e.b.j.g.h.t.u.d.e.e.j.c.c.p.r.0.w.R A u w - X X     - e B S E 9.t.g.t.y.j.j.d.a.0.8.q.a.r.r.i.y.r.y."
};
