/* XPM */
static char *result[] = {
/* columns rows colors chars-per-pixel */
"64 64 188 2 ",
"   c #347E18",
".  c #35562C",
"X  c #35592C",
"o  c #395A2F",
"O  c #384437",
"+  c #374D34",
"@  c #394E35",
"#  c #3C433D",
"$  c #3C4D3D",
"%  c #375630",
"&  c #3A5235",
"*  c #3C5B33",
"=  c #3E523A",
"-  c #3C5C3A",
";  c #366426",
":  c #336B22",
">  c #35612A",
",  c #3A632C",
"<  c #3E7926",
"1  c #41553E",
"2  c #415A3C",
"3  c #417D25",
"4  c #416A32",
"5  c #3F4641",
"6  c #3F4840",
"7  c #3E5342",
"8  c #3D5942",
"9  c #377543",
"0  c #377D44",
"q  c #404642",
"w  c #434B44",
"e  c #464B49",
"r  c #494F4C",
"t  c #435444",
"y  c #485646",
"u  c #455A42",
"i  c #475048",
"p  c #49534B",
"a  c #465B4B",
"s  c #4E5C4E",
"d  c #505D4F",
"f  c #4F5552",
"g  c #4F5A50",
"h  c #505653",
"j  c #535D54",
"k  c #585E57",
"l  c #585F58",
"z  c #4E654A",
"x  c #45724D",
"c  c #566157",
"v  c #536A56",
"b  c #576258",
"n  c #59645A",
"m  c #566D5A",
"M  c #5D695E",
"N  c #517854",
"B  c #57715B",
"V  c #557C5C",
"C  c #5F6B60",
"Z  c #5F7060",
"A  c #616D62",
"S  c #656F69",
"D  c #647265",
"F  c #677469",
"G  c #68766A",
"H  c #6B7A6D",
"J  c #6E7D70",
"K  c #707F72",
"L  c #1D8F03",
"P  c #1E9303",
"I  c #1E9B01",
"U  c #208F04",
"Y  c #29850D",
"T  c #258C09",
"R  c #2B8D0B",
"E  c #318E0E",
"W  c #249504",
"Q  c #2A9606",
"!  c #259A04",
"~  c #2C9B06",
"^  c #2C930B",
"/  c #2D9A0C",
"(  c #329D07",
")  c #32940C",
"_  c #349C09",
"`  c #3A9D0A",
"'  c #2C8413",
"]  c #2D8A12",
"[  c #328514",
"{  c #398616",
"}  c #338B14",
"|  c #398C15",
" . c #2D9314",
".. c #349515",
"X. c #399213",
"o. c #329D12",
"O. c #369719",
"+. c #35941A",
"@. c #27A204",
"#. c #2DA206",
"$. c #33A307",
"%. c #39A207",
"&. c #34A906",
"*. c #3AAB07",
"=. c #35A208",
"-. c #3BA309",
";. c #36AA08",
":. c #3BAA09",
">. c #2FA012",
",. c #3AA412",
"<. c #328F27",
"1. c #358C35",
"2. c #34853D",
"3. c #35893D",
"4. c #388D3F",
"5. c #429B0D",
"6. c #42A30B",
"7. c #41AC09",
"8. c #43B10A",
"9. c #368645",
"0. c #398347",
"q. c #378A40",
"w. c #388B47",
"e. c #378749",
"r. c #3A8548",
"t. c #398C49",
"y. c #389042",
"u. c #3A924C",
"i. c #478B54",
"p. c #56875F",
"a. c #558B5F",
"s. c #449D54",
"d. c #4C9A5A",
"f. c #43AE47",
"g. c #40A54C",
"h. c #43AD4F",
"j. c #44A355",
"k. c #44AC54",
"l. c #46A458",
"z. c #49A55A",
"x. c #45AC59",
"c. c #49AA5C",
"v. c #45B251",
"b. c #46B15B",
"n. c #49B45D",
"m. c #4AB85F",
"M. c #569962",
"N. c #6A8665",
"B. c #708B6D",
"V. c #6E8A72",
"C. c #738375",
"Z. c #768678",
"A. c #78877A",
"S. c #768C7A",
"D. c #7A8A7C",
"F. c #709B77",
"G. c #76927A",
"H. c #56AC66",
"J. c #4EBC63",
"K. c #55B467",
"L. c #52BC66",
"P. c #57B769",
"I. c #56BB69",
"U. c #4EC85D",
"Y. c #4FC065",
"T. c #4ECB67",
"R. c #52C367",
"E. c #51CC61",
"W. c #54C46A",
"Q. c #5AC56D",
"!. c #53CC6A",
"~. c #54D26D",
"^. c #56D86E",
"/. c #5EC371",
"(. c #7E8E80",
"). c #7F9081",
"_. c #819283",
"`. c #849985",
"'. c #879889",
"]. c #8B9D8C",
"[. c #8DA08F",
"{. c #8FA191",
"}. c #92A594",
"|. c #95A897",
" X c #96AA98",
".X c #99AC9B",
"XX c #9CB09E",
"oX c #9EB2A0",
/* pixels */
"6._ ^ ( _ W P W Q _ ( ` ) Q ` ( ( &.$.@.~ ! W Q Q %.5.@ # # # # # # # # @ ) -.$.( ~ $.=.~ Q &.$.Q ~ ~ ( =.~ ~ ( ~ ! Q Q ( Q W ( ",
"6._ W ( ( W L P Q Q Q _ Q ( ` Q #.$.$.~ W ( Q R R E | 1 w w w w q 1 # 1 $ | ` ) ) ~ $.-._ Q *.$.W Q ~ ~ ~ ~ $.` ( Q Q ~ Q Q Q ~ ",
"5.` W Q ( W L W ^ Q ^ _ Q ( ` $.( =.=.~ Q ( ) ; & % 2 D H H H H F k h j s * o * , ^ &.( %.~ &.~ W ! ~ Q ~ $.-.6.` ~ ( ( W Q ~ Q ",
"` ` Q W W W L W W Q ( _ Q ( ( ~ ~ =.=.( ^ ! T @ # O 1 C.D.D.D.D.C.n b n j # O # + ^ *.~ ( ~ &.W W ~ ~ ~ ( &.:.6.( Q ( ( W ! ( ^ ",
"` ` Q Q Q Q W W W Q _ _ W Q ( ~ Q %.$.( _ T Y 1 w w p C.D.D.A.D.Z.C n M n p p r u ] ` _ $.~ $.Q Q ~ ! Q $.#.6.:.~ ~ -.~ W Q ( ( ",
"` Q ` Q Q Q W W W W ` ( Q ` ` ( ~ ( ( ( ) : = H C.K C.A.D.A.D.D.A.Z.Z.C.A.[.}.}.`.t . / #.~ ~ Q ( _ W W ~ $.:.:.~ ( _ ( ~ ~ ( ` ",
"( Q Q Q Q Q Q Q U W ( ` ( %.` ( ( %.( ) | o e K D.D.D.D.A.D.D.A.D.D.D.D.(. X X.X{.k 1 } ^ ~ _ Q -.-.~ W ~ ( 6.6.( ( _ ( ~ ( ( ` ",
"Q Q Q Q Q Q ( Q Q W Q ` ` 5.( ( $.-.`   * O 1 C.D.D.D.D.D.D.A.D.A.A.D.D.D.D.(.(.D.}.`.t . ^ &.$.=.-.~ W ~ =.6.:.( ` ` ( ~ ~ ( ( ",
"Q W W Q ^ W ) Q ` W Q ` 5.` ( Q =.-.) < y i d C.(.A.D.D.D.D.D.D.D.D.A.C.C.D.D.D.D..X}.h t ' ) -.$.=.Q W Q ( 6.( ! ~ ( ( ~ ( =.( ",
"( W W Q ( Q Q W ` Q Q ` ` 5.` Q %.) * M ].}.[.D.A.D.D.D.D.D.D.D.D.D.C.C M Z.D.D.D.D.D.}.`.t X -.&.$.~ ! $._ _ ! P W ~ =.( =.%.~ ",
"` W ! Q W ( ( W Q ( Q ` ` ` Q Q $.) 1 S }.XXXX).S.D.A.D.A.D.D.D.A.D.Z.C M K C.D.D.D.D..X{.j u X.~ $.P ! $.( ~ W P P ! $.` =.:.$.",
"-.~ ~ ( W ~ ( Q Q ` Q ( ( ( ( ` ( o.N.A.D.}.|.D.A.D.D.A.D.D.D.D.D.D.D.Z.C.M A C.D.D.D.D.(.[.`.u : ^ P ! ( =.~ Q W W ( %.-.=.$.$.",
"%.~ ( =.! Q ` ~ ~ ^ Q ( ( Q ( ` ^ +.B.D.A.{.|.).(.D.A.D.D.D.D.D.D.A.D.D.C.M M D.).D.D.D.`..X}.i ; Q ! ! ~ =.$.~ ! Q _ =.&.( ~ #.",
"W ( %.( ( ! ( ( ~ ~ Q Q Q Q ( ) > - H K C.A.`.}.{.(.A.D.A.D.D.D.D.D.A.D.C.n M [.|.|.|.|.|.XX[.y ; _ ~ ~ ~ $.$.$.@.Q ( #.=.$.~ #.",
"W ( ( $.~ ~ ( ~ ( ~ ( ~ ~ ! ( E + w D C.J C.)..X.X(.A.D.D.D.D.D.D.D.A.D.Z.b M }.oXXXXXXXXXoX}.y ; ) ~ $.~ _ $.$.~ ! ! ~ ~ &.#.@.",
"@.=.~ #.~ ~ ~ ~ $.$.( ( ! W ( E + w D H J C.D.}.}.).).D.D.D.S.D.D.D.A.D.A.D F {..X.X X X X.X].p ; ) ( #.~ ( ( #.$.! ! ~ #.=.&.#.",
"~ &.#.#.! ! Q ~ ~ ~ ~ ~ Q Q $.) @ 1 c A H K C.D.). X}.(.A.D.D.A.D.D.D.D.D.}.{._.).D.).).D.D.C.w ; ) =.$.~ ~ $.( =.@.! ! #.&.&.~ ",
"! &.;.~ ! I ! ~ Q ~ Q ~ ~ ~ Q | 1 q k C H H K C.D.|. X).(.D.D.A.D.D.D.D.(..X.X(.D.A.A.C.D.A.C.s 4 X.( &.#.~ =.:.:.-.~ ! @.:.;.#.",
"~ &.;.Q W I #.#.! Q Q ~ &.) . $ f k b A H H H K C.A.).|.}.(.A.A.A.D.D.A.D..X.X(.A.C.C.J C.H C.].C.* { &.#.~ &.8.:.:.$.@.&.&.;.$.",
"~ #.&.! ! ~ &.$.Q ( Q ~ ` { $ e j n b C H H K H J Z.(.}.|.).(.(.D.D.D.D._.|.}.D.C.H H H H H C.}.D.s 3 ) #.( =.7.*.;.#.&.;.&.#.$.",
"=.@.#.@.~ =.=.@.~ Q ~ _ o 1 d c c b b b M F H J J J J D.).|..X.X|.D.D. X|._.D.C.H M n n C C.D.D.`.'.n o ~ #.&.7.8.;.&.$.;.;.@.~ ",
":.&.#.#.$.-.=.@.Q Q ) | 1 e c n n b n b n D H J J J J Z.(.{. X|.}._._.|.}.D.Z.H F n b b n Z.D.D.`.}.F u } ~ $.7.8.:.#.#.;.;.@.~ ",
"-.=.#.~ =.-.$.~ ~ Q o 1 Z F H F n c n b n D J J H J J J J C.C.C.A.|.}.A.C.J H M n b n c M C.D.A.D.D.].`.u . ^ *.8.:.#.#.&.;.$.~ ",
"=.=.$.( ( =.=.W U [ 1 e F C.C.H M n n b n D H H J J H J J J J H J {.{.J H J H n b n b n M C.D.D.D.D.}.[.h 7 ] ) o.,.$.~ #.&.#.~ ",
"( =.=.~ Q ( ( T X 1 M D C.A.A.C.G F n n n n C H J J J J J Z.Z.C M D D M M C.C.M b b n J C.D.D.D.D.D.).D.C.D 2 & * , / ! ! #.#.~ ",
"#.=.&.$.Q W ! R + 1 D J A.D.S.A.K G n b b b n G J J H H J A.C.n k b b c M C.C.M b c M C.D.D.D.Z.D.D.D.A.D.C.w O # @ Q I ! #.( #.",
"Q $.-.( ~ W T [ 1 p G C.A.D.D.A.K G M n n b n H J H J C.C.D.Z.C n n b b M Z.Z.A M n C Z.D.D.D.D.A.D.D.).D.C.p w e 1 ] L R ^ ( ( ",
"~ ( &.-.( R . $ C G Z.A.S.A.D.A.J J H A n b n H J J C.{.}.D.Z.Z.C.n c c n C.D.C.Z.C.C.D.D.Z.D.D.D.D.{.|.D.C.K K C.G 1 + + X ) ;.",
"#.$.$.$.R ' u f H C.A.D.A.D.D.A.K K J D n b n G H H C.}. X).(.(.Z.A M n A Z.D.(.).).(.D.D.D.D.D.A.A.].{._.D._.(.(.Z.p e r u [ o.",
"~ ~ $.) . u `.[.D.Z.A.D.A.A.D.A.A.Z.J D n b b n M H J D._. X}.(.Z.Z.C.C.C.A.D.|..X.X}.D.A.D.D.D.H M M F }..X.X}.D.Z.K Z.[.`.u + ",
"@._ ~ E @ r }..XD.D.D.A.D.D.D.D.D.Z.K F n n b b n G J Z.(.}. X_.D.(.(.(.(.D._.|..X X}._.D.D.D.D.J M c n ].|.}.}._.(.(._..X}.r # ",
"#.&.~ R + r {..X(.D.D.D.D.S.D.A.D.A.Z.C.G C b b n H C.A.D.(.).}..X.X X.X.X.X|._.D.C.D.|. XD.D.}.].C.j i n A C S }..X.X.XoX[.p O ",
"#.$.^ ' & p }..XD.D.D.D.D.A.D.D.A.D.D.Z.J C M b n F H A.A.C.D.}..X X X X X X}.A.C.G J {.{.)._. X}.Z.h w j b j C ].}.}.}.|.`.r O ",
"#.^ % = d M }..XD.Z.D.D.D.D.D.D.D.D.D.S.Z.C.F n b n M H C.C.C.D.(.(.(.(.(.Z.C.C C n n C F }.XX.X{.Z.g 6 j b b n C C A C A M e # ",
"#.^ @ q j A }..X).D.D.D.D.D.D.D.A.D.A.A.Z.C.H b c c M F H H H A.Z.Z.Z.Z.C.H D c j b b k C ]. X X{.D.b i j c b b b b c c c j # # ",
"( R + q j A }. XD.D.D.D.D.D.D.A.A.D.A.Z.J J F i w c b b M H J J J K J A M M n w w j n b n A G D.].{.D.H i w c b n b b n n c q # ",
"$.R + 5 j A |.XX(.D.D.A.D.D.D.D.D.D.A.Z.J J G w # c b c M H H H J J H n c b j # 5 j b b b b n Z.'. X'.C.w 5 k b k b b k b k # # ",
"^ ' = r j C ].[.).(.D.D.(.D.D.D.D.A.A.C.H G A w 6 j c k b D H H H H F n b k j i i n n n n n n J _.}.`.J w 5 g b v B b n n j 6 # ",
"& 1 H J n b M G }..XXX.X.X|.D.D.A.A.C.D n p w # # # # # 6 q w c M n n n k 6 w H C.C.K n c b b C F D.(.C.w # 5 u I.I.v n b c 6 # ",
"# w C.A.M b c M ].|.}.}.}.}._.D.).D.H Z b t # i p i w w w w i j c j j j j t p C.(.D.A.A C n b n D J Z.J w # # 7 J.W.V v b c 6 # ",
"# w K A.M b b n C C C C C F }..X.X{.A n k 6 i '.[.C.K K K C.H e # # 6 # e H C.A.D.A.D.{.].C b b n n C b 6 # # 7 r.u.j.d.v j 6 5 ",
"# w V.G.M k n b k b b b j C ].|.|.].C v c e i {..X_.(.(.D.D.C.p e w t w p C.D.A.D.(.)..X{.C k b b b b j i 6 # $ 0 w.x.c.v b 6 # ",
"# 8 I.I.m l b b n b b b b n C C C C b b b e i C._.|.|.D.A.D.Z.C.K C.J C.C.A.D.A.(.|.|.).A.C c b b k k n J H 6 6 0.w.x.z.m k 6 # ",
"# 7 J.!.V v b n b b b c b b b c b b v Z m t w H D.}.|._.(.D.D.D.D.D.D.D.D.D.D.(.).}.{.).J C b n n m v M Z.C.e $ 9 0.k.z.m j 6 # ",
"# 7 j.J.W.P.v n n k b n b b n b b B P.!.L.x 6 b D D._. X XD.Z.D.A.A.A.A.A.A.(.}.{.F A A.Z.M b n a.P.p.M C.C.e # # 8 l.c.m h 5 # ",
"# 7 s.n.~.W.B n b b b b n b b n B Z W.^.L.x 6 j n K D.}. X_.D.(.(.(.(.(.(.(.(.|.{.C b Z.Z.n n B M.L.a.M Z.C.w O # = s.l.N z = @ ",
"# 7 j.n.n.c.v n b b b b k n n m K.R.!.H.V t 6 c n n A D.`.}. X|. X}. X X|. X{.`.D.M n Z.Z.n m K.Y.c.V m Z.C.6 # # = 0.w.+.} Y Y ",
"# 6 j.b.n.z.v l b n b n b b l B W.^.~.H.b w 6 c n b n C.(. XXXXXXXXXoX.XXXoX.X(.C.M n A.Z.n m W.T.x.V n Z.C.t # 5 6 0 3./ ~ W W ",
"& - s.k.x.l.v h k j b n c n m p.R.!.L.M.m w 6 c b b M C._.}. X|.|. X|..X|..X|.D.C.C n K V.Z V R.Y.z.V C A.C.w O @ * 2.1.o.( Q Q ",
"5.+.w.t.x.l.8 5 5 e j n k m K.W.J.c.V n b i 6 j n b n Z.D.D.(.(._.(.(.D.D._.D.D.C.n n n Z I.W.n.d.B H Z.D.C.e @ { ` _ / _ ( ( ^ ",
"-...3.w.k.s.- @ + = g c v V W.T.b.s.v j g w 6 g c b n C.Z.A.D.D.A.A.D.D.D.D.D.A.K C n n m !.~.b.i.v F C.C.G 1 X ) -.-.( ( ( ^ ( ",
"q.q.9.9.w.4.O..._ [ = t s.l.J.b.u.0.6 5 6 5 5 5 e k n n C C.D.D.D.A.A.D.D.D.C.M C Z.C.n B W.~.b.i.6 e w e 1 [ R Q ` -.( ( ( ( ( ",
"q.2.3.3.2.1.=.;.&.^ % - s.x.x.j.w.0 * & & & @ + + g j j n Z.D.D.D.G.G.D.D.D.C.M b J J b v R.T.c.t.= @ @ @ . ) ! W ( ( ( ( ^ ( %.",
"^ ^ o._ / Q #.;.#.W R  .q.e.t.e.e.3...^ ^ ] R W ' @ e c C Z.D.D.G././.G.D.D.C.C k e e 5 8 c.b.u.1.} E R E E ( Q W Q ~ Q ( ( ( %.",
"! ~ ;.$.#.@.#.;.#.~ W ~ 3.9.3.3.3.1._ #.~ ~ ! ! T % = g b H C.J V.!.!.F.D.C.H b d $ + @ - j.x.y.<.~ ! ~ ( ( ~ ( Q Q W Q ( ( ( %.",
"! =.7.:.&.@.&.:.&.! ! / q.q. ./ o.o._ ~ ~ Q W W P ^ | = 5 e e e a l.m.Q.P.a w q 1 [ ) E O.k.h.O._ =.Q ~ ( ( Q W ( ^ Q Q ( ( ( $.",
"~ $.8.:.&.#.=.7.$.Q ( _ 1.3._ #.( ( ( ( W W Q W P ! ) & @ @ & @ - s.n.~.R.- + @ o ) $.( -.f.f.=.( -.~ Q ( ( W W ` ` W Q ` ( ( ( ",
"@.&.8.:.#.( =.-.=._ _ ( o._ _ ~ ~ ( ( ~ Q Q Q W P ! ~ ) R ) ) ) ..k.n.~.E.+.Y } X.( ( ( -.,.,.( ( -.$.( ( ( W W ` -.Q W ( ( ( $.",
"I #.:.-.#.&.$.=._ _ _ ~ Q @.$.Q ! ( ( W W Q Q U P ! ( ~ ~ ! &.%./ k.n.~.E.>.W ~ %.%.=.$.=.=.%.( Q _ =.( %.~ P W ` ` ( W Q ( $.( ",
"I ! ( $.#.~ ~ ( _ _ ( Q ! ! ~ ~ ~ ^ Q U W ` ( W W W ~ ~ W W ( ( o.g.x.T.U.o.Q Q _ -.=.$._ _ ( ( Q =.=.( ` &.W W ( 6.( W Q ( &.( ",
"! ! ~ ~ #.~ ~ ~ ( ( ( ~ W Q ~ @.~ ( W L ! ` ( ~ ~ ! ~ Q W W ( =._ 4.u.x.v.>.Q ( %.%.=.( =.~ #.#.~ &.$.( =.-.( ! ( -.( W W ~ =.( ",
"! #.! Q ~ ~ ! / ( ~ ~ ~ Q ! ~ #.$.( ~ L ~ -.^ ~ ` ( ~ Q Q ! _ ) +.2.t.k.h.o.! _ ` %.=.~ #.~ ~ ~ ! $.$.$.=.%.=.! Q -.( ~ ! Q ~ ( ",
"~ =.=.~ ~ ~ ! Q _ Q Q ( _ ~ Q &.$.#.! P ~ %.W ! ` _ ( ( W W o.1.2.9.w.c.h.o.~ ( ` ( $.~ Q ~ ~ ! ! ~ ~ =.%.( ( ~ ( ` ( ~ ( Q W ( ",
"_ _ -.#.~ #.! ~ ~ Q Q ( _ ~ W =.&.~ @.! ( ( ! W ( -.` ~ Q ! o.3.e.9.w.c.v.-.( ^ _ ~ ~ ! ~ ~ #.~ ! #.( &.:.$.( ~ ( ` Q Q ( Q Q ~ "
};
