/* XPM */
static char *result[] = {
/* columns rows colors chars-per-pixel */
"64 64 182 2 ",
"   c #2E2825",
".  c #3B2321",
"X  c #352D2B",
"o  c #3C2D2A",
"O  c #35322E",
"+  c #3A302D",
"@  c #3D3231",
"#  c #6B1D1D",
"$  c #721E1F",
"%  c #7D1D1F",
"&  c #6D1F21",
"*  c #452423",
"=  c #582627",
"-  c #443534",
";  c #4B3A37",
":  c #453D3B",
">  c #4C3B3B",
",  c #473735",
"<  c #533E3D",
"1  c #583837",
"2  c #6B2324",
"3  c #612121",
"4  c #7B2224",
"5  c #742526",
"6  c #693738",
"7  c #753738",
"8  c #44403E",
"9  c #59423E",
"0  c #564343",
"q  c #5C4343",
"w  c #514D4A",
"e  c #5D4849",
"r  c #595654",
"t  c #484542",
"y  c #624644",
"u  c #634A4A",
"i  c #6D4D4B",
"p  c #684745",
"a  c #734C4B",
"s  c #794C49",
"d  c #73514F",
"f  c #6E4F50",
"g  c #6A5757",
"h  c #745252",
"j  c #7C5656",
"k  c #7D5856",
"l  c #7E595A",
"z  c #76575A",
"x  c #6A6563",
"c  c #6E6B6A",
"v  c #7B6968",
"b  c #7C7876",
"n  c #841C1F",
"m  c #8D1B1F",
"M  c #981C1F",
"N  c #A31A1E",
"B  c #821E21",
"V  c #8D1D22",
"C  c #921E21",
"Z  c #9B1D21",
"A  c #A31D22",
"S  c #AC1D22",
"D  c #B41D23",
"F  c #BC1C22",
"G  c #8B2022",
"H  c #88262A",
"J  c #932226",
"K  c #982123",
"L  c #942C2D",
"P  c #982F33",
"I  c #833335",
"U  c #943A3E",
"Y  c #A62229",
"T  c #A12E32",
"R  c #A6363A",
"E  c #B92D33",
"W  c #C31C22",
"Q  c #CC1C24",
"!  c #D31B22",
"~  c #DD1B23",
"^  c #E41B23",
"/  c #ED1B23",
"(  c #F11C24",
")  c #DF2730",
"_  c #E4252C",
"`  c #EE2D34",
"'  c #843D40",
"]  c #A23F43",
"[  c #B53C41",
"{  c #F03B42",
"}  c #85494B",
"|  c #954244",
" . c #9E4649",
".. c #895457",
"X. c #815759",
"o. c #835B5B",
"O. c #8B5D5E",
"+. c #8C5659",
"@. c #965A5B",
"#. c #BD4951",
"$. c #A9595D",
"%. c #8A5F61",
"&. c #875D61",
"*. c #8C6263",
"=. c #856869",
"-. c #936364",
";. c #9A6667",
":. c #966669",
">. c #99676A",
",. c #9D6A6C",
"<. c #966966",
"1. c #8E6F70",
"2. c #9F6C70",
"3. c #8A7979",
"4. c #A36D6D",
"5. c #AB6C6D",
"6. c #A86567",
"7. c #AA716F",
"8. c #A66E71",
"9. c #B26D71",
"0. c #A67173",
"q. c #AB7275",
"w. c #AE757A",
"e. c #B27576",
"r. c #B67679",
"t. c #B6797A",
"y. c #BB7B7E",
"u. c #EF4148",
"i. c #F04148",
"p. c #EC4850",
"a. c #E5565C",
"s. c #C17D7F",
"d. c #F36B72",
"f. c #E97078",
"g. c #EE6A70",
"h. c #BF7E82",
"j. c #C47F81",
"k. c #EE7C83",
"l. c #888486",
"z. c #948E8D",
"x. c #9C989B",
"c. c #ABA8A7",
"v. c #B3ADAD",
"b. c #B7B5B5",
"n. c #BFBEBE",
"m. c #BAB8B7",
"M. c #C58284",
"N. c #CA8486",
"B. c #CC8589",
"V. c #D1878A",
"C. c #D48A8D",
"Z. c #D98E8F",
"A. c #DB8E92",
"S. c #DD9095",
"D. c #F6868C",
"F. c #E39296",
"G. c #E59499",
"H. c #EA969A",
"J. c #ED989D",
"K. c #F29B9F",
"L. c #F8959B",
"P. c #F69DA2",
"I. c #F99EA3",
"U. c #FBA0A5",
"Y. c #D0CFCE",
"T. c #D4D3D3",
"R. c #D7DAD9",
"E. c #DCDCDC",
"W. c #D8D7D7",
"Q. c #CCCACB",
"!. c #E0DFDF",
"~. c #E1E0DF",
"^. c #DFE2E1",
"/. c #E2E2E2",
"(. c #E6E9E8",
"). c #EBECEB",
"_. c #F0EFEF",
"`. c #ECF0EF",
"'. c #EFEFF0",
"]. c #F4F5F4",
"[. c #FFFFFF",
"{. c None",
/* pixels */
"{.{.{.{.{.{.{.{.{.{.{.{.{.{.{.{.{.{.{.{.{.{.{.{.{.{.{.{.{.{.{.{.{.{.{.{.{.{.{.{.{.{.{.{.{.{.{.{.{.{.{.{.{.{.{.{.{.{.{.{.{.{.{.{.",
"{.{.{.{.{.{.{.{.{.{.{.{.{.{.{.{.{.{.{.{.{.{.{.{.{.{.{.{.{.{.{.{.{.{.{.{.{.{.{.{.{.{.{.{.{.{.{.{.{.{.{.{.{.{.{.{.{.{.{.{.{.{.{.{.",
"{.{.{.{.{.{.{.{.{.{.{.{.{.{.{.{.{.{.{.{.{.{.{.{.{.{.{.{.{.{.{.{.{.{.{.{.{.{.{.{.{.{.{.{.{.{.{.{.{.{.{.{.{.{.{.{.{.{.{.{.{.{.{.{.",
"{.{.{.{.{.{.{.{.{.{.{.{.{.{.{.{.{.{.{.{.{.{.{.{.{.{.{.{.{.{.{.{.{.{.{.{.{.{.{.{.{.{.{.{.{.{.{.{.{.{.{.{.{.{.{.{.{.{.{.{.{.{.{.{.",
"{.{.{.{.{.{.{.{.{.{.{.{.{.{.{.{.{.{.{.{.{.{.{.{.{.{.{.{.{.{.{.{.{.{.{.{.{.{.{.{.{.{.{.{.{.{.{.{.{.{.{.{.{.{.{.{.{.{.{.{.{.{.{.{.",
"{.{.{.{.{.{.{.{.{.{.{.{.{.{.{.{.{.{.{.{.{.{.{.{.{.{.{.{.{.{.{.{.{.{.{.{.{.{.{.{.{.{.{.{.{.{.{.{.{.{.{.{.{.{.{.{.{.{.{.{.{.{.{.{.",
"{.{.{.{.{.{.{.{.{.{.{.{.{.{.{.{.{.{.{.{.{.{.{.{.{.{.{.{.{.{.{.{.{.{.{.{.{.{.{.{.{.{.{.{.{.{.{.{.{.{.{.{.{.{.{.{.{.{.{.{.{.{.{.{.",
"{.{.{.{.{.{.{.{.{.{.{.{.{.{.{.{.{.{.{.{.{.{.{.{.{.{.{.{.{.{.{.{.{.{.{.{.{.{.{.{.{.{.{.{.{.{.{.{.{.{.{.{.{.{.{.{.{.{.{.{.{.{.{.{.",
"{.{.{.{.{.{.{.{.{.{.{.{.{.{.{.{.{.{.{.{.{.{.{.{.{.{.{.{.{.{.{.{.{.{.{.{.{.{.{.{.{.{.{.{.{.{.{.{.{.{.{.{.{.{.{.{.{.{.{.{.{.{.{.{.",
"{.{.{.{.{.{.{.{.{.{.{.{.{.{.{.{.{.{.{.{.{.{.{.{.{.{.{.{.{.{.{.{.{.{.{.{.{.{.{.{.{.{.{.{.{.{.{.{.{.{.{.{.{.{.{.{.{.{.{.{.{.{.{.{.",
"{.{.{.{.{.{.{.{.{.{.{.{.{.{.{.{.{.{.{.{.{.{.{.{.{.{.{.{.{.{.{.{.{.{.{.{.{.{.{.{.{.{.{.{.{.{.{.{.{.{.{.{.{.{.{.{.{.{.{.{.{.{.{.{.",
"{.{.{.{.{.{.{.{.{.{.{.{.{.{.{.{.{.{.{.{.{.{.{.{.{.{.{.{.{.{.{.{.{.{.{.{.{.{.{.{.{.{.{.{.{.{.{.{.{.{.{.{.{.{.{.{.{.{.{.{.{.{.{.{.",
"{.{.{.{.{.{.{.{.{.{.{.{.{.{.{.{.{.{.{.{.{.{.{.{.{.{.{.{.{.{.{.{.{.{.{.{.{.{.{.{.{.{.{.{.{.{.{.{.{.{.{.{.{.{.{.{.{.{.{.{.{.{.{.{.",
"{.{.{.{.{.{.{.{.> *.6.-.y o {.{.{.{.{.{.{.{.{.{.{.{.{.{.{.{.{.{.{.{.{.{.{.{.{.{.{.{.{.{.{.{.{.{.{.{.{.{.{.{.{.{.{.{.{.{.{.{.{.{.",
"{.{.{.{.{.{.{.{.*.U.U.U.H.y.o.> {.{.{.{.{.{.{.{.{.{.{.{.{.{.{.{.{.{.{.{.{.. . * {.{.{.{.{.{.{.{.{.{.{.{.{.{.{.{.{.{.{.{.{.{.{.{.",
"{.{.{.{.{.{.{.{.,.U.K.U.K.U.U.S.*.- {.{.{.{.{.{.{.{.{.{.{.{.{.{.{.{.= J D W W Q D J * {.{.{.{.{.{.{.{.{.{.{.{.{.{.{.{.{.{.{.{.{.",
"{.{.{.{.{.{.{.{.h P.P.I.I.P.I.I.P.B.d X {.{.{.{.{.{.{.{.{.{.8 x x : Z ( ( / ( / / D 6 c b w {.{.{.{.{.{.{.{.{.{.{.{.{.{.{.{.{.{.",
"{.{.{.{.{.{.{.{.; B.I.P.P.I.I.P.I.I.K.5.9 {.{.{.{.{.{.{.{.c Y.].].E.=.S / / / ( D =.^.[.[./.b {.{.{.{.{.{.{.{.{.{.{.{.{.{.{.{.{.",
"{.{.{.{.{.{.{.{.{.l P.I.I.P.I.P.I.I.I.I.Z.X.{.{.{.{.{.{.r !.[.[.[.[.).l ! / / ~ +.).[.[.[.[._.c {.{.{.{.{.{.{.{.{.{.{.{.{.{.{.{.",
"{.{.{.{.{.{.{.{.{.- y.I.I.I.P.I.I.P.P.P.I.K.4.- {.{.{.{.c.[.[.[.[.[.[.b.Y ( ( D v.[.[.[.[.[.[.m.{.{.{.{.{.{.{.{.{.{.{.{.{.{.{.{.",
"{.{.{.{.{.{.{.{.{.{.q C.I.P.I.P.P.P.I.I.I.I.I.r.; {.{.8 T.[.[.[.[.[.[./.U / / T W.[.[.[.[.[.[.~.w {.{.{.{.{.{.{.{.{.{.{.{.{.{.{.",
"{.{.{.{.{.{.{.{.{.{.{.h J.I.I.P.I.P.P.P.I.I.I.I.M.y {.w !.[.[.[.].v.E.`.| ^ / T /.[.[.[.[.[.[.).r {.{.{.{.{.{.{.{.{.{.{.{.{.{.{.",
"{.{.{.{.{.{.{.{.{.{.{.{.-.P.I.P.P.I.F.,.H.I.I.K.U.A.d t W.[.[.[.T.X z.(.U / / P W.].l.n.[.[.[.!.w {.{.{.{.{.{.{.{.{.{.{.{.{.{.{.",
"{.{.{.{.{.{.{.{.{.{.{.{.- 8.P.P.I.I.P.e.O.Z.I.I.P.U.Z.q c.[.[.[.'.x.T.n.Y ( ( S c.~.@ l.[.[.[.b.{.{.{.{.{.{.{.{.{.{.{.{.{.{.{.{.",
"{.{.{.{.{.{.{.{.{.{.{.{.{.> 4.P.I.I.P.I.B.j y.I.I.K.U.Z.v (.[.[.[.[.`.v W / / ~ } /.Q./.[.[.).x {.{.{.{.{.{.{.{.{.{.{.{.{.{.{.{.",
"{.{.{.{.{.{.{.{.{.{.{.{.{.{.X %.J.I.P.I.I.S.o.4.K.I.K.U.r.3.~.[.[.(.h.D / ^ / ( F v R.[.].E.v   {.{.{.{.{.{.{.{.{.{.{.{.{.{.{.{.",
"{.{.{.{.{.{.{.{.{.{.{.{.{.{.{.{.j H.I.I.P.U.H.-.%.J.U.I.K.p 7 1.3.p S / / / / / / F I =.v 7 C * {.{.{.{.{.{.{.{.{.{.{.{.{.{.{.{.",
"{.{.{.{.{.{.{.{.{.{.{.{.{.{.{.{.{.j G.I.I.I.I.P.q.o.Z.U.I.$.! ! W ~ / / / / / / / / / ! Q / D {.{.{.{.{.{.{.{.{.{.{.{.{.{.{.{.{.",
"{.{.{.{.{.{.{.{.{.{.{.{.{.{.{.{.{.{.p N.I.I.I.I.U.M.k N.G.' W ( ( ( / / / / / / / / / ( / / G {.{.{.{.{.{.{.{.{.{.{.{.{.{.{.{.{.",
"{.{.{.{.{.{.< > , - < {.{.{.{.{.{.{.{.> q.P.I.I.K.U.S.-.} W N ~ ~ Q / / / / / / / ( ^ ! / Q = {.{.{.{.{.{.{.{.{.{.{.{.{.{.{.{.{.",
"{.{.+ a ,.t.C.A.Z.C.C.j.e.;.j 9 0 r {.{.@ X.A.I.U.P.U.V.5 ( Q A Q 4 A ^ / / / / ( ! V S ~ 2 {.{.{.{.{.{.{.{.{.{.{.{.{.{.{.{.{.{.",
"{.> q.K.I.U.I.I.I.I.I.I.I.I.P.H.V.7.k 9 X   e q.J.U.I.6.W _ / D D ~ Z % A F F D C B F ^ 4 X {.{.{.{.{.{.{.{.{.{.{.{.{.{.{.{.{.{.",
"{.%.P.P.I.P.P.I.P.P.I.I.P.I.P.P.I.U.P.F.y.-.u + 1 r.H.| ^ / / / A Z ^ ~ D Z V Z D ^ ! H ,.h.;.k y - {.{.{.{.{.{.{.{.{.{.{.{.{.{.",
"{.X.K.P.I.I.P.I.I.I.P.I.P.I.P.P.I.I.I.I.U.I.F.t.d - q J / / / / ^ S % D ! ^ / / ! Z } j.I.U.U.P.H.B.q.l > {.{.{.{.{.{.{.{.{.{.{.",
"{.{.-.K.I.P.I.I.I.P.P.P.I.I.P.P.I.U.I.I.P.I.I.I.I.j.1 A / / / / / / ~ A % n m G 2 8.J.I.I.P.I.I.P.U.U.U.Z.q.i + {.{.{.{.{.{.{.{.",
"{.{.X &.H.I.I.P.I.I.I.I.P.P.K.0.:.w.N.G.P.I.U.U.I.U.5.D ( / / / / / / ( ^ ) g.a.R G.I.I.I.I.P.I.U.K.U.P.U.U.K.N.-.9 {.{.{.{.{.{.",
"{.{.{.{.f B.P.P.P.I.P.I.I.P.I.J.B.0.O.l *.,.h.S.P.U.7.F ( / / / / / ( ( / g.U.f.7 &.-.q.B.G.P.I.U.P.P.P.U.P.I.I.U.C.o., {.{.{.{.",
"{.{.{.{.{.> %.A.I.I.I.P.P.P.I.I.U.I.U.J.C.t.<.o.o.-.s W / / / / / / / ( u.L.K.#.6.J.N.8.:.l l 0.M.A.J.P.I.P.I.P.L.U.K.s.i {.{.{.",
"{.{.{.{.{.{.{.9 -.V.P.I.P.P.I.I.P.U.P.U.I.U.I.K.F.N.@.Q / / / / / / ( _ f.U.k.| S.I.I.I.I.J.Z.M.q.;.&.,.K.I.I.I.U.U.K.U.G.X.{.{.",
"{.{.{.{.{.{.{.{.{., l h.G.P.U.I.I.K.U.K.P.I.I.P.I.I.C.E / / / / ( _ ( ` d.D.E +.I.I.I.I.P.I.I.I.I.I.H.S.P.P.P.I.I.P.I.I.I.H.i {.",
"{.{.{.{.{.{.{.{.{.{.{.{.e &.r.V.G.K.I.I.U.I.I.I.P.I.J.] ~ / / / / / ` D.d._ 7 - o.j.F.P.I.I.I.I.I.I.I.I.I.P.P.I.I.P.I.P.U.U.y.+ ",
"{.{.{.{.{.{.{.{.{.{.{.{.{.{.{.> e z -.w.j.j.C.S.A.A.G.+.F / / / / ` D.K.p.L s.s.9 : 0 k e.F.P.I.I.I.P.I.P.I.I.P.I.I.P.P.P.U.B.8 ",
"{.{.{.{.{.{.{.{.{.{.{.{.{.{.{.{.{.{.{.{.{.@ t 0 > 0 z x & ~ / / ^ u.L.a.m @.U.U.H.4.> {.O < o.e.B.G.J.P.I.U.I.U.U.U.U.U.P.j.d {.",
"{.{.{.{.{.{.{.{.{.{.{.{.{.{.{.{.{.{.{.{.{.{.{.{.{.{.{.{.{.$ W ^ / ) ) ] 4.o.V.U.U.U.N.f {.{.{.{.g u u j -.q.w.w.w.q.,.;.f , {.{.",
"{.{.{.{.{.{.{.{.{.{.{.{.{.{.{.{.{.{.{.{.{.{.{.{.{.{.{.{.2 W M # #  .9.F.U.C.X.M.U.K.U.J.,.< {.{.{.{.{.{.{.{.{.r r {.{.{.{.{.{.{.",
"{.{.{.{.{.{.{.{.{.{.{.{.{.{.{.{.{.{.{.{.{.{.{.{.{.{.{.{.3 W / $ O M.U.I.P.U.C.k y.U.I.I.P.N.1.{.{.{.{.{.{.{.{.{.{.{.{.{.{.{.{.{.",
"{.{.{.{.{.{.{.{.{.{.{.{.{.{.{.{.{.{.{.{.{.{.{.{.{.{.{.I ! K # * {.=.H.I.I.I.I.F.o.t.I.I.U.U.A.k {.{.{.{.{.{.{.{.{.{.{.{.{.{.{.{.",
"{.{.{.{.{.{.{.{.{.{.{.{.{.{.{.{.{.{.{.{.{.{.{.{.{.{.{.G ( ^ Z {.{.{.o.H.I.P.I.I.H.O.0.P.P.P.U.A.h {.{.{.{.{.{.{.{.{.{.{.{.{.{.{.",
"{.{.{.{.{.{.{.{.{.{.{.{.{.{.{.{.{.{.{.{.{.{.{.{.{.{.= 4 ~ ^ J {.{.{.{.o.H.I.P.I.U.H.-.8.P.I.P.I.G.l {.{.{.{.{.{.{.{.{.{.{.{.{.{.",
"{.{.{.{.{.{.{.{.{.{.{.{.{.{.{.{.{.{.{.{.{.{.{.{.{.{.J W B # . {.{.{.{.{.o.H.U.I.P.U.K.,.-.J.I.P.I.J.l {.{.{.{.{.{.{.{.{.{.{.{.{.",
"{.{.{.{.{.{.{.{.{.{.{.{.{.{.{.{.{.{.{.{.{.{.{.{.{.{.S ( ~ C {.{.{.{.{.{.{.k H.I.P.P.I.P.e.>.P.P.P.U.G.h {.{.{.{.{.{.{.{.{.{.{.{.",
"{.{.{.{.{.{.{.{.{.{.{.{.{.{.{.{.{.{.{.{.{.{.{.{.{.o 4 ~ ^ 2 {.{.{.{.{.{.{.{.j G.U.P.P.I.P.A.P.P.P.P.P.G.O.{.{.{.{.{.{.{.{.{.{.{.",
"{.{.{.{.{.{.{.{.{.{.{.{.{.{.{.{.{.{.{.{.{.{.{.{.{.5 D G 4 , {.{.{.{.{.{.{.{.{.i Z.I.I.I.I.I.I.I.P.I.I.I.G.i {.{.{.{.{.{.{.{.{.{.",
"{.{.{.{.{.{.{.{.{.{.{.{.{.{.{.{.{.{.{.{.{.{.{.{.{.A ( ~ 4 {.{.{.{.{.{.{.{.{.{.{.q M.I.I.I.P.I.P.P.I.I.P.I.B.q {.{.{.{.{.{.{.{.{.",
"{.{.{.{.{.{.{.{.{.{.{.{.{.{.{.{.{.{.{.{.{.{.{.{.. n ^ ! 6 {.{.{.{.{.{.{.{.{.{.{.{.; 0.K.I.P.I.I.I.I.P.P.P.I.w.{.{.{.{.{.{.{.{.{.",
"{.{.{.{.{.{.{.{.{.{.{.{.{.{.{.{.{.{.{.{.{.{.{.{.B S % = {.{.{.{.{.{.{.{.{.{.{.{.{.{.O o.S.U.I.P.I.P.U.P.I.I.H.h {.{.{.{.{.{.{.{.",
"{.{.{.{.{.{.{.{.{.{.{.{.{.{.{.{.{.{.{.{.{.{.{.{.A ( W 6 {.{.{.{.{.{.{.{.{.{.{.{.{.{.{.{.u N.P.I.P.I.I.I.I.I.I.q.{.{.{.{.{.{.{.{.",
"{.{.{.{.{.{.{.{.{.{.{.{.{.{.{.{.{.{.{.{.{.{.{., W / K {.{.{.{.{.{.{.{.{.{.{.{.{.{.{.{.{.{.< o.C.I.I.I.I.P.I.I.A.0 {.{.{.{.{.{.{.",
"{.{.{.{.{.{.{.{.{.{.{.{.{.{.{.{.{.{.{.{.{.{.{.2 ^ ! = {.{.{.{.{.{.{.{.{.{.{.{.{.{.{.{.{.{.{.{.> >.S.I.I.I.P.I.J.h {.{.{.{.{.{.{.",
"{.{.{.{.{.{.{.{.{.{.{.{.{.{.{.{.{.{.{.{.{.{.{.G / G {.{.{.{.{.{.{.{.{.{.{.{.{.{.{.{.{.{.{.{.{.{.{.0 *.V.H.P.P.M.< {.{.{.{.{.{.{.",
"{.{.{.{.{.{.{.{.{.{.{.{.{.{.{.{.{.{.{.{.{.{.{.A W * {.{.{.{.{.{.{.{.{.{.{.{.{.{.{.{.{.{.{.{.{.{.{.{.{.e f z z g {.{.{.{.{.{.{.{.",
"{.{.{.{.{.{.{.{.{.{.{.{.{.{.{.{.{.{.{.{.{.{.{.G 5 {.{.{.{.{.{.{.{.{.{.{.{.{.{.{.{.{.{.{.{.{.{.{.{.{.{.{.{.{.{.{.{.{.{.{.{.{.{.{.",
"{.{.{.{.{.{.{.{.{.{.{.{.{.{.{.{.{.{.{.{.{.{.{.{.{.{.{.{.{.{.{.{.{.{.{.{.{.{.{.{.{.{.{.{.{.{.{.{.{.{.{.{.{.{.{.{.{.{.{.{.{.{.{.{.",
"{.{.{.{.{.{.{.{.{.{.{.{.{.{.{.{.{.{.{.{.{.{.{.{.{.{.{.{.{.{.{.{.{.{.{.{.{.{.{.{.{.{.{.{.{.{.{.{.{.{.{.{.{.{.{.{.{.{.{.{.{.{.{.{."
};
