/* XPM */
static char *result[] = {
/* columns rows colors chars-per-pixel */
"64 64 188 2 ",
"   c #010303",
".  c #0D0005",
"X  c #030C01",
"o  c #020509",
"O  c #0A020C",
"+  c #010B0C",
"@  c #0B0B0B",
"#  c #130107",
"$  c #140109",
"%  c #1C010B",
"&  c #051301",
"*  c #081600",
"=  c #061900",
"-  c #091C00",
";  c #01110D",
":  c #0E0311",
">  c #000E11",
",  c #15041B",
"<  c #001215",
"1  c #0C1213",
"2  c #00161A",
"3  c #001A1D",
"4  c #141212",
"5  c #1A1716",
"6  c #2C0415",
"7  c #3B071B",
"8  c #062000",
"9  c #092300",
"0  c #0C2C01",
"q  c #102600",
"w  c #0D3400",
"e  c #0F3901",
"r  c #113501",
"t  c #123B01",
"y  c #170523",
"u  c #001D22",
"i  c #290A36",
"p  c #002126",
"a  c #00252B",
"s  c #00292E",
"d  c #002D33",
"f  c #002F38",
"g  c #003339",
"h  c #00343B",
"j  c #282525",
"k  c #363434",
"l  c #46081C",
"z  c #480823",
"x  c #550926",
"c  c #6D0D32",
"v  c #760D3B",
"b  c #144402",
"n  c #154B02",
"m  c #1B4A03",
"M  c #155402",
"N  c #1B5503",
"B  c #165A03",
"V  c #1C5C03",
"C  c #215B06",
"Z  c #146502",
"A  c #1D6304",
"S  c #1E6C03",
"D  c #1D7303",
"F  c #1D7C03",
"G  c #256605",
"H  c #226D05",
"J  c #237305",
"K  c #2A7406",
"L  c #257B05",
"P  c #2A7D07",
"I  c #307C07",
"U  c #41403F",
"Y  c #340D41",
"T  c #3D0F58",
"R  c #003A43",
"E  c #003C44",
"W  c #4A1253",
"Q  c #53146B",
"!  c #671A73",
"~  c #6E1C7C",
"^  c #701C7D",
"/  c #004349",
"(  c #00444C",
")  c #004853",
"_  c #004B54",
"`  c #00545B",
"'  c #00525C",
"]  c #005561",
"[  c #005A64",
"{  c #005E6A",
"}  c #00626C",
"|  c #006572",
" . c #006A75",
".. c #006D7B",
"X. c #00727D",
"o. c #474645",
"O. c #575656",
"+. c #676766",
"@. c #6A6A6A",
"#. c #757575",
"$. c #777878",
"%. c #89113B",
"&. c #871042",
"*. c #911243",
"=. c #981248",
"-. c #A21545",
";. c #A91454",
":. c #B81655",
">. c #C81A56",
",. c #D81B5D",
"<. c #E21D61",
"1. c #EC1E64",
"2. c #1E8B03",
"3. c #1D9303",
"4. c #1C9801",
"5. c #258405",
"6. c #2A8406",
"7. c #258B05",
"8. c #2B8B06",
"9. c #2D8908",
"0. c #348C09",
"q. c #388C0A",
"w. c #259504",
"e. c #2A9506",
"r. c #259B04",
"t. c #2C9B06",
"y. c #309507",
"u. c #329C07",
"i. c #339408",
"p. c #349C08",
"a. c #399D09",
"s. c #27A204",
"d. c #2DA206",
"f. c #32A307",
"g. c #39A307",
"h. c #35A907",
"j. c #38AA07",
"k. c #36A308",
"l. c #3BA309",
"z. c #36A908",
"x. c #3AAA09",
"c. c #3DB009",
"v. c #419E0B",
"b. c #42A40B",
"n. c #41AB0A",
"m. c #5A1783",
"M. c #6F1C93",
"N. c #771EA1",
"B. c #007582",
"V. c #007983",
"C. c #007C8B",
"Z. c #007F90",
"A. c #8B229D",
"S. c #8821A5",
"D. c #9324A7",
"F. c #9B26AE",
"G. c #9D26B0",
"H. c #00828E",
"J. c #008494",
"K. c #008997",
"L. c #008B9B",
"P. c #00909F",
"I. c #008EA1",
"U. c #0093A3",
"Y. c #0096A9",
"T. c #009AAD",
"R. c #009EB2",
"E. c #00A2B6",
"W. c #00A5BA",
"Q. c #00A9BE",
"!. c #00ADC3",
"~. c #00B1C7",
"^. c #00B5CC",
"/. c #00B8CF",
"(. c #00BCD4",
"). c #00BFD8",
"_. c #00C0D9",
"`. c #858585",
"'. c #969797",
"]. c #A7A9A9",
"[. c #B7B8B8",
"{. c #CACACB",
"}. c #D3D4D4",
"|. c #DDDEDE",
" X c #E3E3E3",
".X c #EBEBEC",
"XX c #F4F4F4",
"oX c #F9F9F9",
/* pixels */
"b.a.e.u.a.3.3.w.e.p.p.p.i.S 9 X n y.f.r.u.r.r.e.e.a.b.g.u.u.f.d.x.x.h.t.d.l.l.t.u.t.f.f.p.e.j.f.r.t.t.u.p.r.u.p.u.e.e.e.t.e.w.u.",
"b.i.e.t.a.3.3.2.e.y.e.p.9.w     & J f.r.e.u.t.e.w.y.l.g.k.i.s.f.x.n.z.s.t.f.k.k.f.u.f.f.p.e.k.f.e.e.t.r.u.r.u.g.u.e.e.t.e.e.e.t.",
"v.a.e.w.t.w.3.w.e.e.e.p.6.8   % . t e.t.e.e.u.e.7.w.t.f.k.t.t.f.h.x.c.4.r.d.f.k.u.r.j.u.g.e.h.s.r.e.u.e.t.f.l.b.p.t.u.u.w.e.t.t.",
"a.a.e.w.w.w.3.w.e.e.p.p.7.- O x $ & J e.t.w.e.u.e.e.e.f.k.t.d.d.f.d.c.s.w.t.d.k.f.e.j.t.p.t.h.e.w.t.t.r.f.f.n.n.u.t.p.u.w.e.u.t.",
"a.a.i.e.e.r.3.w.w.t.i.u.5.8 # c z   t y.i.w.r.d.e.u.i.f.f.t.u.t.f.t.h.s.w.r.r.f.f.r.j.u.u.t.f.e.e.u.e.r.f.f.x.l.e.t.l.t.w.r.f.p.",
"p.i.p.t.e.w.w.r.3.t.u.a.6.8 # v v $ & J a.w.w.t.e.u.l.a.u.t.r.t.f.t.h.f.r.r.r.u.k.d.k.d.f.t.d.t.p.p.w.r.t.u.b.j.t.t.a.u.e.e.p.a.",
"i.e.e.i.e.t.e.e.w.w.t.a.9.9 $ &.=.z   b i.d.t.t.t.i.l.a.u.t.t.t.e.f.t.d.r.s.w.e.f.h.h.e.e.7.8.7.y.g.e.w.t.p.b.b.k.k.a.u.t.t.u.p.",
"u.w.e.e.e.e.u.e.e.w.y.l.q.8 $ *.;.v # = I k.d.a.g.u.k.l.t.e.u.u.r.f.t.d.f.e.4.r.t.f.d.5.b w r t m G 5.2.r.f.b.n.t.i.i.8.e.t.u.a.",
"e.3.w.e.p.e.i.e.a.w.e.l.q.9 $ -.:.v $   m u.h.g.b.p.t.a.u.t.t.t.e.t.r.f.t.t.t.r.t.r.r.A X   ; ; + X = M 5.u.a.6.B t r t n J e.p.",
"p.w.e.e.e.e.e.w.a.e.e.a.q.8 $ *.&.6     - 6.d.l.x.f.t.t.t.t.d.e.e.r.r.f.d.a.f.t.t.r.e.J X > [ | _ d >   t H b & X + ; +   & b 6.",
"p.t.r.t.w.t.t.w.t.u.t.a.0.9 . 7 $ o y , X M e.x.l.f.u.d.u.d.f.e.e.w.e.d.d.k.l.t.e.t.d.6.0 + | !.~.E. .3   X   < d ' } ) d   X V ",
"l.t.t.u.w.t.p.t.e.i.y.u.9.-     , Y Q T O - 5.l.g.t.t.u.t.u.u.u.w.w.u.u.t.l.l.u.t.a.s.e.N X f E.).).^.B.3 + R V.W.~.Q.J.} < X H ",
"k.t.p.u.e.r.p.t.e.y.y.t.6.-   i ! N.N.m.y   n J H V V A G D 6.q.7.7.u.t.f.p.a.u.t.u.t.t.5.9 + } ~.(.(.!.X.X.E./._.(.E.H._ + 9 7.",
"w.p.k.d.u.e.p.u.t.t.t.t.7.9 O ! F.F.S.M.T O   X X X X X X   & q t B L e.t.f.a.u.t.a.u.t.y.V X 3 H./.(.(././.).(./.~.P. .3   B t.",
"w.p.p.d.t.t.u.t.u.t.p.t.7.8 : ^ G.G.F.N.! y   > d h R R d u 2 + + X & t S 8.u.u.t.i.u.e.u.9.t   d I.(.(._././._./.T...s   0 7.d.",
"r.k.u.d.t.t.t.u.d.d.t.d.5.- $ ~ F.G.F.N.m.Y   a U.!.Q.Q.Q.E.Y.B._ s <   X 0 A 7.t.a.a.e.t.u.L 0   f L././._./.~.P.} a   9 L f.t.",
"s.k.d.d.e.d.e.r.t.r.t.7.N & O ~ F.G.G.D.W :   < B.(.).).).).(.^.!.E.V./ 2 o & e K y.a.t.u.f.u.J 9 o / Q.(.^.T.} g <   9 D f.k.d.",
"r.z.z.s.4.4.r.u.r.w.J e     # ~ G.G.A.Q , . %   h E.).(.(./.(.(.).)./.E.C./ <   - C 9.p.t.u.f.t.G   g W.!.L.g + X * b F r.j.k.d.",
"t.h.z.e.r.4.d.f.w.A 9   +   @ ~ D.A.Y O # z v % < C./.(.(.(.(.(.(./.(._.^.T. .s o & n 9.f.u.k.t.N & ( E.U.X.<   t P e.s.h.h.h.h.",
"t.d.h.r.w.e.h.t.A = o s _ 3 O Q W , . % c ;.;.z . R W.).(.(./.(.(.(.(.(.(./.Q.H.( > X t 6.t.j.7.0 +  .!.L.X.3 & K j.f.f.h.h.d.d.",
"k.s.d.s.u.k.u.Z = + E X.X.3   o . # l =.,.,.:.&.% 2 J.(.(.(.(.(.(.(.(.(.(.(./.~.K._ 2   b 5.y.V X u Y.^.L.X.u & K z.d.f.x.z.s.s.",
"x.h.d.d.k.k.H = + _ T.L.X.3   # l %.>.<.1.<.:.=.6 o } ^.(.(.(.(.(.(.(.(.(.(.(.(.~.L.` 3 X t N & >  .^.^.L.B.p X K z.f.d.h.x.s.e.",
"l.k.d.t.k.P 9 + ( E.^.L.X.3 # %.>.1.1.1.<.>.=.z . 2 C./.(.(.(.).(.(.(.(.(.(.(.(./.~.P.} 2     < ' !.(.^.U.B.a & G x.h.d.h.z.f.t.",
"k.k.u.u.9.r   R T.).^.U.X.u . x -.>.>.:.*.x % o 3 } !.(.(.(.(.(.(.(.(.(./._././._./.~.W.| <   / E.(.(.^.U.V.d X G l.f.t.s.h.f.t.",
"u.k.k.e.M X u K.(.(./.!.U._ 2 O # % % % # . < h C.!.(.(.(.(.(.(.(.(.(.(.(.(.(.(.(.(.(.(.W.' o d E.(.(.^.U.V.d & V k.d.r.s.d.t.u.",
"d.k.k.L = < | ^.(.(.(.(./.W.B._ s 2 < < a ) B.E./.(.(.(.(.(.(.(.(.(.(.(.(.(.(.(.(.(.(.(.(.Y.s + } ~._.^.U.B.d   V u.s.4.r.d.t.u.",
"e.f.p.b   h E.(.(.(.(.(.(.(./.!.E.R.Y.R.W.!./.(.(.(.(.(.(.(.(.(.(.(.(.(.(.(.(.(.(.(.(.(.(.^...+ p U.(.^.U.V.s X V d.r.4.r.s.f.f.",
"t.u.6.* < C./.(./.(.(.(.(.(.(.(._._._._.)._.(.(.(.(.(.(.(.(.(.(.(.(.(.).(.(.(.(.(.(.(.(.(.(.W.E a K.(./.U.X.s X A e.r.4.3.t.u.f.",
"d.t.N o h Q.).(.(.(.(.(./.(.(.(.(./.(.(./.(.(./.(.(.(.(.(.(.(.(.(.(.(.(.(.(.(.(.(.(.(.(.(.(.(.T.L.!.(.^.P.B.a X A r.s.4.r.t.u.d.",
"s.6.9 > B./.(.(.(.(.(.(.(.(.(.(.(.(./.(.(.(.(._.(.(.(.(.(.(.(.(.(.(.(.(._.(.(.(.(.(.(.(.(.(.(.(.(.(.(.^.P.X.p & S e.d.r.w.t.d.r.",
"t.H X u T.).(.(.(.(.(.(.(.(.(.(.(.(.(._.(.(.(.(.(.(.(.(.(.(.(.(.(.(.(.(._.(.(.(.(.(.(.(.(.(.(.(.(.(.(.~.L.B.u & S e.s.e.t.t.f.d.",
"t.n X _ !.).(./.^.^.(.(.(.(.(.(.(.(.(.(.(.(.(.(.(./.(.(.(.^./.(.(.(.(.(.(.(.(.(.(.(.(.(.(.(.(.(.(.(.(.~.K.X.> X L t.r.e.u.u.z.h.",
"7.0 > B.^.(.~.Y...B.T./.(.(.(.(.(.(.(.(.(.(.(.(.(.(.(.^.U.X.B.T.^.(.(.(.(.(.(.(.(.).(.(.(.(.(.(.(.(.(.Q.K. .; & 5.t.r.e.f.f.f.f.",
"7.& > I.(.^.B.u > > d K./.(./.(.(.(.(.(.(.(.(.(./.(.^.B.p + < d K./.(.(.(.(.(.(.(.(.(.(.(.(.(.(.(.(.(.W.J.} + - 2.r.w.r.p.u.t.f.",
"J X u R.).R.a @ U k o R !.(.(.(.(.(.(.(.(.(.(.(.(.(.R.s @ U k o E Q.).(.(.(.(.(.(.(.(.(.(.).(.(.(././.E.H.` + 9 2.s.r.t.a.d.s.f.",
"A X f !.).I.> j [.].4 u R.)./.(.(.(.(.(.(.(.(.(.(.(.I.> j [.].4 3 W.).(.(.(.(.(.(.(.(.(.(.(.(.(.(._./.R.H.( + e 7.h.s.t.u.d.d.f.",
"N + E Q.).T.u 4 $.+.@ d W.).(.(.).(.(.(.(.(.(.(.(.(.T.2 4 #.+.@ d Q.)./.(.(.(.(.(.(.(.).(.(.(.(.(.(./.U.C.h + n e.k.d.r.t.d.d.d.",
"n X ( !.).!.] > 4 @ 2 ..^.(.(.(.(.(.(.(.(.(.(.(.(.(.!.[ < 1 @ 2 ..^.(.(.(.(.(.(.(.(.(.(.(.(.(.(./._.^.P.X.a X V u.j.d.r.s.t.t.t.",
"b + ) !.(.(.!...E ( C.!.(.(.(.(.(.(.(.).(.(.(.(.(.(.(.W...E ) C.!.(.(.(.(.(.(.).(.(.(.(.(.(.(.(.(._.~.K...2 & F u.k.t.s.d.d.t.t.",
"n & ( !.(.(.^.T.J.J.R./.(./.(.(.(.(.(.(.(.(.(.(.(.(.(./.Y.J.J.R./.(.(.(.(.(.(.(.(.(.).(.(.(.(.(.(./.W.H.` ; - 5.f.a.u.t.d.s.t.r.",
"M X R W.).(.R.d < < E Q._.).(.(.(.(.(.).(.(.(.(.(.(.).R.f > 2 E Q._.(.(.(.(.(.(.).(.(.(.(.(.(.(././.T.H./ o t 7.d.a.a.t.t.s.t.t.",
"A X s W.).(.E.R < 2 _ !.!.W./.(./.(.^.W.^.(./.(.^.!.~.R.R < 2 _ !.).(.(.(.(.(.(.(.(.(.(.(.(.(.(._./.P.X.s + N w.t.a.p.t.e.r.r.r.",
"J & 2 R.).(.(.Q.W.E.!.!.' R T.).).^. .f C./.).(.L.f | ~.!.E.W.!./.(.(.(.(.(.(.(.(.(.(.(.(.(.(././.~.K. .< & J t.u.a.a.t.t.r.w.e.",
"6.- < J./.(.(.)._._._.Q.h + ' Y.E.Z.a   h K.W.I.E + ' !.).).).).(.(.(.(.(.).(.(.).(.(.(.(.(.(.)./.E.H._ o 9 7.i.u.l.a.t.t.e.t.y.",
"9.r + { ^.(.(.(.(./.(.^...> o 2 2 > @ 4 @ > 2 2 o u J./.(.(.(.(.(.(.(.(.(.(.(.(.(.(.(.(.(.(./.!.Q.U.X.s o n w.t.i.a.a.t.u.e.e.u.",
"y.C + h W.).(.(.(.(.(.).E.d   @ 5 j +.'.O.j 5 O   ( Q.).(.(.(.).(.(.(.(.(.(.(.(.(.(.(.(.(.(.U.( } H.} ; & S w.e.t.p.p.a.d.r.w.t.",
"p.L & 2 I.(.(.(./.(.(.).!.R 1 #.[.}. X.X X}.[.O.1 ] !.(.(.(.(.(.(.(.(.(.(.(.).(.(.(.(.(.(./.C.2 a  .h   w 2.t.e.u.a.p.t.d.e.3.w.",
"b.w.e o [ !.(.(.(.(.(.).!.) 4 `..XoXoXXXoXoX XO.1 | ~.(.(.(.(.(.(.(.(.).(.(.(.(.(.(.(.(.(.).T.u + E < & Z w.e.t.f.a.a.t.t.y.e.w.",
"b.t.V X a T.(.(.(.(.(.(.~.` 1 @. XXXXXXX.XoX|.o.< ../.(.(.(.(.(.(.(.(.(.).(.(.(.(.(.(.(.(.(.!.E   o   e 5.r.w.t.f.f.u.t.u.i.e.e.",
"b.a.0.9 o } ~.(.(.(.(.(.^...< o.|.oXXXXXXXoX}.j > K.(.(.(.(.(.(.(.(.(.(.(.(.(.(.(.(.(.(.(.(.!.} <   & H e.e.e.e.f.l.f.t.u.a.t.t.",
"l.u.p.B   p L.(.(.(./.(.(.J.< j }.oXXXXXXXXX[.5 2 R.(.(.(.(.(.(.(.).(.).(.(.(.(.(.(.(.(.(./.W.C.h   & J t.u.e.e.p.l.l.u.u.u.t.i.",
"u.e.a.S X   ) W.(.(.(.(.).E.u 5 ]..XXXXXXX.X`.4 h !.(.(.(.(.(.(.(.(.(.(.(.(.(.(.(.(.(.(.(.(.~.Y. .a   0 L u.t.e.e.l.l.u.u.u.u.f.",
"e.e.y.N     ;  .~.(.(.(.).!./ 1 #. XXXXXXX XO.> { ~.(.(.(.(.(.(.(.(.(.(.(.(.(.(.(.(.(.(.(.(.(.~.U.} 3   w J e.e.w.a.f.u.i.u.u.k.",
"e.t.0.0   3 + 3 C.^.(.(.(./.B.> k {.oXXXXX[.5 2 I.(.(.(.(.(.(.(.(.(.(.(.(.(.(./.(.(.(.(.(.(.(.(.~.U.} 3   9 V 7.w.w.t.e.u.u.u.k.",
"r.t.H & < ` h   p K./.(./.(.E.d @ #.}..X{.O.@ ( !.(.(.(.(.(.(.(.(.(.(.(.(.(./.(.(.(.(.(./.(.(.(.(./.R...s o & n 7.w.w.t.u.u.u.k.",
"r.i.t   g V...s o a Z.^.(.(./.C.2 @ O.#.o.O a I.(.(.(.(.(.(.(.(.(.(.(.(./.T.Z.W.(.(.(.(.(.(.(./.(.(./.W.X.g   = 6.t.w.u.i.i.f.f.",
"e.A & < } H.H. .s   p B.!.(.(.!.| 3 + 1 + p B.^.(.(.(.(.(.(.(.(.(.(.(.(.!.' u ' E.).).(.(.(.(.(.(._./.Y.} p   8 0.a.w.e.a.i.f.d.",
"2.8 o / X.H.H.H. .d   2 ] R./.).!.J.] ) { U.~.(.(.(.(.(.(.(.(.(.(.(.(.(./.B.< o ( Y.!.(.).).).(.~.E.X.h ;   - A a.l.e.w.u.u.u.f.",
"M   2 } H.H.H.H.H...R ; + g C.Q.(.(.^.!.~.(.(.(./.(.(./.(.(.(.(.(.(.).(.~.L.d     p [ J.T.E.E.K.} g < o & t D 3.a.a.i.r.t.a.f.u.",
"Z & o g  .C.H.H.H.H.X.) >   > / C.W.^.).).).(.(.(.(.(.(.(.(.(.).(./.!.Y.} p o X - X o > 2 3 2 2 + X & r J y.r.3.p.v.u.w.w.u.k.u.",
"3.M & o < h ' } | } ' f o       < g | I.W.!.^././.(.(.(././.!.!.T.C._ u o   w A 6.G r * &   & & 0 V L e.a.b.u.r.e.l.t.r.w.t.a.u.",
"r.e.S w & o o + > + o X & 0 B b = X + 2 d _ | V.J.I.I.I.J.X.[ R p < o & 0 A 5.t.a.p.i.5.L J F 7.7.t.f.l.f.p.f.e.t.l.k.t.r.r.e.u.",
"t.f.t.7.S b 0 & & & 9 b G 5.w.e.5.N 0 & X + ; < < < 2 2 < ; ; X X 9 b J 9.e.t.u.a.p.k.t.e.r.t.r.r.f.t.k.j.p.u.t.u.a.a.e.t.e.r.t.",
"p.u.l.f.t.w.7.5.L 5.7.8.u.t.w.z.f.r.w.L V b 0 = X       & - r N J q.p.f.g.g.a.t.p.u.s.r.e.d.d.e.r.d.u.f.x.f.u.t.u.a.t.e.u.t.e.i."
};
