/* XPM */
static char *result[] = {
/* columns rows colors chars-per-pixel */
"64 64 236 2 ",
"   c #010202",
".  c #020B0C",
"X  c #080B0A",
"o  c #030F11",
"O  c #031213",
"+  c #021719",
"@  c #041B1C",
"#  c #011C22",
"$  c #011E28",
"%  c #032227",
"&  c #022329",
"*  c #17292E",
"=  c #012A34",
"-  c #01323D",
";  c #013644",
":  c #003945",
">  c #013B4B",
",  c #003D50",
"<  c #004355",
"1  c #00465D",
"2  c #27434C",
"3  c #004C66",
"4  c #03526B",
"5  c #1E5A6C",
"6  c #025675",
"7  c #005E7C",
"8  c #00617C",
"9  c #316676",
"0  c #1B8F02",
"q  c #1D9302",
"w  c #1B9800",
"e  c #249504",
"r  c #2A9606",
"t  c #259A04",
"y  c #2C9B06",
"u  c #2A9808",
"i  c #2E9A09",
"p  c #319707",
"a  c #329C06",
"s  c #349C08",
"d  c #3A9E0A",
"f  c #2F9910",
"g  c #29A106",
"h  c #2DA205",
"j  c #33A306",
"k  c #39A306",
"l  c #34A906",
"z  c #3AAA07",
"x  c #35A208",
"c  c #3BA309",
"v  c #36A908",
"b  c #3BAA09",
"n  c #3CB10A",
"m  c #39A415",
"M  c #3EA223",
"N  c #419E0B",
"B  c #42A30B",
"V  c #41AC0A",
"C  c #43B10B",
"Z  c #42A417",
"A  c #49A826",
"S  c #4EAA2E",
"D  c #54AA38",
"F  c #58B13A",
"G  c #5AAC49",
"H  c #5BB148",
"J  c #66B44B",
"K  c #6EB350",
"L  c #6CB456",
"P  c #76BA67",
"I  c #7EBF7A",
"U  c #82B76C",
"Y  c #85BC78",
"T  c #015F83",
"R  c #006484",
"E  c #006C8D",
"W  c #007090",
"Q  c #00759A",
"!  c #397A93",
"~  c #007BA2",
"^  c #947BB7",
"/  c #957BBA",
"(  c #917EC2",
")  c #37829A",
"_  c #0185AB",
"`  c #018BB4",
"'  c #0293BB",
"]  c #4790AB",
"[  c #039AC3",
"{  c #149EC6",
"}  c #07A4CB",
"|  c #0FA9D1",
" . c #14B2DA",
".. c #2CABD2",
"X. c #28B9DD",
"o. c #1ABBE2",
"O. c #27BBE7",
"+. c #34B4EC",
"@. c #36BCF2",
"#. c #4D9CDE",
"$. c #5A9BDD",
"%. c #738DCD",
"&. c #7C8CCB",
"*. c #7891CE",
"=. c #768FD1",
"-. c #6D94D4",
";. c #6599D9",
":. c #6B9CDC",
">. c #7493D4",
",. c #7995D5",
"<. c #759CDC",
"1. c #7A9DDC",
"2. c #50A0DF",
"3. c #5CA0DE",
"4. c #51B1D4",
"5. c #6AA1DF",
"6. c #76A2DE",
"7. c #4F9EE0",
"8. c #559EE2",
"9. c #6A9EE0",
"0. c #49A8E6",
"q. c #55A4E4",
"w. c #5BA8E6",
"e. c #53ABE9",
"r. c #48B7ED",
"t. c #54B3EC",
"y. c #5CB6ED",
"u. c #4BBEF1",
"i. c #57BBF0",
"p. c #64A3E3",
"a. c #6CA3E2",
"s. c #65A9E7",
"d. c #62ADEA",
"f. c #6CABEA",
"g. c #74A4E2",
"h. c #7CA4E3",
"j. c #74AAE7",
"k. c #7AAAE3",
"l. c #69B8EB",
"z. c #75B7EA",
"x. c #69BBF5",
"c. c #75BEF1",
"v. c #1CC6F8",
"b. c #37C2E7",
"n. c #39C9F6",
"m. c #47C6E8",
"M. c #56CBEB",
"N. c #5CCCEC",
"B. c #46C7F4",
"V. c #58C6F3",
"C. c #4AD1F7",
"Z. c #58D4F8",
"A. c #63C9EB",
"S. c #66D3EF",
"D. c #67C8F6",
"F. c #6DCDF6",
"G. c #74CAF5",
"H. c #6CD3F3",
"J. c #67D6F8",
"K. c #73D5F4",
"L. c #7BD6F2",
"P. c #74DAF6",
"I. c #7CD9F4",
"U. c #78D6FA",
"Y. c #7EE0F8",
"T. c #8ABC82",
"R. c #8B83BD",
"E. c #AD8FB7",
"W. c #8BC686",
"Q. c #97C287",
"!. c #97C797",
"~. c #A3C395",
"^. c #A6C7A7",
"/. c #B4C7AA",
"(. c #AACAB4",
"). c #B6C8B8",
"_. c #AAD9B9",
"`. c #898AC6",
"'. c #838CCA",
"]. c #9489C4",
"[. c #8591CD",
"{. c #9795C9",
"}. c #859AD6",
"|. c #959CD3",
" X c #A498CA",
".X c #87A7DD",
"XX c #98A8D9",
"oX c #AAA2CB",
"OX c #A5A6D8",
"+X c #B3A7D3",
"@X c #BAB5DB",
"#X c #87ADE4",
"$X c #8EB4E6",
"%X c #84B8E8",
"&X c #9AB0E7",
"*X c #99B6E6",
"=X c #A6AFE4",
"-X c #ABB7E7",
";X c #B8B9E7",
":X c #C29DC3",
">X c #C2B2DC",
",X c #D4BBD8",
"<X c #CABDE5",
"1X c #D0BFE1",
"2X c #B7CAC5",
"3X c #ADD7CA",
"4X c #BDCCD7",
"5X c #BBD6D6",
"6X c #B4E1CD",
"7X c #8DC7F1",
"8X c #84DBF4",
"9X c #87DCF6",
"0X c #8BDEF9",
"qX c #97DEF7",
"wX c #BCC4EC",
"eX c #ABD0E8",
"rX c #A6C8F2",
"tX c #B7C9F3",
"yX c #B6D9F8",
"uX c #89E1FA",
"iX c #98E3F7",
"pX c #94E2FC",
"aX c #9BE4FA",
"sX c #A4E3F9",
"dX c #B5E5F3",
"fX c #C8CFD0",
"gX c #CBCAD8",
"hX c #D2CCDC",
"jX c #C5C9E7",
"kX c #D3C7E5",
"lX c #C7D4E9",
"zX c #C8C9F5",
"xX c #C7DCFE",
"cX c #D8D0F4",
"vX c #C7EAFA",
"bX c #C7EFF9",
/* pixels */
"B s p p d q q e u f p d p p p s j j j g y y r r e d B k a s h h z V l t y k k a p y l x p y z j r y y a x t y s p t t r p r r p ",
"B s r y d q 0 q r p p s p p s a a j j t t y y r e p d k x a y h z V n g y x v j x y j x s t l j e y y y a t x d p y r y r r t y ",
"N p r e i e 0 e r r r p r p c j j j j y r r p y e e y k x p y h l b n w e h x x j y j j d t z y e e y y y j k B s y s a e r y y ",
"N d r e u e q e r r p s r y x y y x x p p e y a r r r x x y h j h l n t e y h j a y v y s y j t e t y y j x b B s y s a e r a p ",
"d d p r r e q e e r s s r y s r r x x s p e t j r r y x a p y a j y l t e t h x x t v a j y j t r p t y h j c V y i x a e y a p ",
"s p p p r r e e e r s p r s c a y a a s d e e y r p c s j y y y j y l l t t e a j g k a a y y r s x e t y j B v y p x a y r s s ",
"s r r p r r r r e e s d s d d a a c s s d i t y a y c d p y y y t a h h t h q y j l v y y y a y d c t e y s B V x s s a y y s d ",
"p r r r r r p y r e p d d d s p x c s s d v j s d a d B y y y y t j y h j t w e y l h y y t x j x c p e y a B b a s d a y y a s ",
"u e e e p r p r s r r d N N p p a v d c c v l d c s y d a y y y t y y j y y y t y t y i y y a z j x y e t a B j y y s s y a x a ",
"r e r r p r r e s r p d d d s r x s s c d x l k V k y y y y a t y r t y a s l y y t y j j t y b l l y t a s s t q e y x a x j a ",
"d y y y e y y r p s p s s d p y j j j B c a h k k x y h y j s p u t y y h k c a y y y y y j a k j y q e j d p e 0 q t j d x z j ",
"c y y y e i s y r p r p s p s s a h v b z j h z l a a j j y s s e e s a y x c s y s y y j x k j l t q e y x y r e e a j c s j l ",
"s y s a r y s y r p r y s y p s a y h z z l h j l y h a i t s d r e y y s x c s y a p t x x s l j y t t y x j y e y s v k p y h ",
"y y x j y y p p y y y y r p p h h h y j k l y j j y y a u e s B p e y s i a x s y s p y j s s j j a y y y j j h t y p i v j y g ",
"t p s j h y p y a y a y y t s y h j y a x z x a l i i a y q d N p r u j y y s y p s s p y a s a j s y j y s j l g t t y y j l y ",
"y x h y y y y y j j p a t t a a y y y a x z b x a j d j t q p B p e y a h s y y y s s y p a a a a s y h y s s y h y t g h l l g ",
"g l h h t y t y y y y y r y a x y t u s x V B v j j d c i q t c c e r y a x s r p d s p a s j y s s x h y s j y v y t t g l j j ",
"t v l y e w t y t r y y a r y v j t t y a b c c j y s B c t e s a w e e t e r p s c d p y a j j d a x l g u x z b v y t g l v h ",
"y l v y e e h l y r t y s p t z j e t y p k z v l h h t p h i S K P Y T.Y P G Z s p e p j y j y c k k l h y v C z b l y l l v l ",
"y g l t t y l h y y y a k d y j l e e u y j h y v A L P !.3X3X5XyXyXtXtX;XjXjX2X^.U J m c v b z a j k j j h x V z l h l v l g j ",
"v g g y y x v y t y y c c c i x h q q w y j F W.6XeXdXyXqX8XG.S.l.l.l.G.z.%X$X*X-XwXlX).(.fXfX).Q.K A a y j v V C v l x z v t h ",
"b l g g j v l y y y r c p a a b m A H P !.6XdXdXuXU.S.N.V.m.m.v.O.O.+.+.r.t.l.z.k.6..X$X=X-X-X;XkXcXgX~.m t x C C v h h z v g u ",
"v s y h d v h t t y s c c W._.6XdXvXbXbXbXsXpXY.P.J.Z.Z.Z.Z.C.C.C.n.n.n.n.B.u.m.i.t.q.3.;.-.,.,.|.OX;XcXfXF g z C n l y v v h y ",
"x c j a s c x e e e r j W.bXsXsXiXiXaXaXaXuXuXuXI.I.P.U.H.H.P.Y.P.P.P.J.J.J.J.Z.Z.B.@.y.w.q.;.;.>.,.}.&XzXkXY m l l l i g l h y ",
"a j x y r s y q i m A !.dXaXuXY.Y.Y.uX9X8XiXiXiXiXqX8XL.Y.Y.S.P.8X8XL.L.I.8XI.I.K.Z.C.n.B.r.e.e.w.;.:.}.|.-XcXfXQ.S g w g h y i ",
"j x v a y q f I 3XyXsXaX0XuXuXuXiXiXaXiXiXiXL.K.S.N.M.4.X.X.X.X.m.N.M.N.A.S.L.9X8XL.K.Z.C.n.@.t.l.w.w.:.1.#X*X;XcXhXL 0 t g i h ",
"y j v p t D 2XvXrXG.G.K.U.uXpXpXaXsXsXiX8XS.m.O.| } [ [ } ' ' ' _ ' { { |  .b.M.K.8X8XK.J.C.v.@.i.i.e.q.3.<.6.XXOX@XgXA q h j j ",
"y j l Z W.lXrXz.c.z.V.F.U.uXpXqXsXiXI.M.m.X. .} [ _ W 8 8 8 8 8 7 8 W W E ~ ' [ X.r.M.L.K.Z.C.C.B.r.t.t.e.q.;.<..XXXzXT.w y a x ",
"y h A (.lX*Xk.l.l.d.i.V.U.0XsXsXiXS. .| ' _ Q E _ 8 8 4 < < < : ; : < 3 1 3 6 E ~ [ } +.A.L.P.J.B.r.B.t.r.0.#.;.1..X-X(.t t h h ",
"t a ^.zXXX1.a.w.s.e.r.i.F.0XqXqXS.o.} _ R 4 < : - - : : : - = % @ % = = = = - , 3 T Q [  .N.8XP.D.Z.B.r.u.0.0.#.9.g.*XlXD e x t ",
"t A hXOX,.<.;.q.q.q.0.t.D.U.0XqXN.} Q 6 > - = & @ @ @ @ @ * % @ + O @ # % $ + $ = ; 3 T `  .A.9XK.K.V.V.V.r.0.7.8.g..XzXW.t x g ",
"g F gX|.&.,.>.;.q.8.q.e.x.F.0XqXM.} R : # O . . o o . . O O @ @ + o X O + + o o o # $ > E [ O.L.K.D.N.V.B.r.0.2.$.a..XrXlXS h x ",
"t S gX X'.*.>.<.9.8.8.e.y.c.U.0XP.| 6 $             .   . . . O O o . o O o . . . . o = 4 ` o.N.H.H.D.V.r.r.0.#.q.p.h.*XzX!.y v ",
"g d (.>X{.'.=.5.g.a.;.9.s.f.c.G.U.B.~ $                   .   . o O . . o . .       . $ 3 _  .M.L.F.G.D.t.0.$.#.e.s.k.#X=X4Xm j ",
"a e G hX+X{.[.}..X-.>.-.:.9.j.c.F.J.m.4                       . X X o . . .         . = 7 _  .F.L.G.x.l.d.+.0.0.t.d.6.6.&X2Xx g ",
"a t 0 L hX@X{.|.}.1.&.=.:.:.5.f.l.V.Z.C.5                           . o . . .       O - 7 [ B.K.F.D.d.l.f.r.0.2.w.:.<.}.OXwXm h ",
"j e u e G fX1X X|.[.[.[.,.,.<.:.g.f.l.V.Z.] *                         X   . .     . + 1 ` b.U.F.G.y.i.z.d.0.#.$.;.>.6.OX<X^.g g ",
"y e y i r Z /.1XoX].].}.,.=.>.>.,.<.<.k.x.F.D.] 2 X               X               + 6 ..J.K.G.c.l.f.f.d.8.8.;.-.,.XXjXlXT.f y i ",
"e r t y c a p Y hX>XoX|.|.[.*.}.%.%.-.>.1.g.z.D.D.t.) 9 * X X               X * ! 4.Z.U.G.x.l.j.j.j.s.w.9.a.#X*XjXcX~.A g g g t ",
"e r i y d d p 0 D fX1XoX|.].`.`.&.%.%.%.>.,.<.g.j.x.V.V.@.r.2.] ! ! ! ! ] 4.N.D.J.D.l.d.f.a.h.6.k.z.%X$XrXtXxXzX5XP t t h g y i ",
"e r i y c d j e 0 B /.kX XE./ R.R.'.&.&.=.%.-.:.<.1.g.g.a.w.w.x.x.x.x.x.x.y.y.d.p.a.g.h.h.k.7X7XrXyXvXxXlX^.I D j j s a y t y y ",
"p p s a s c c t t p Z /.>XE./ / / `.'.( '.'.&.%.-.-.:.g.h.g.<.#X#Xg.k.j.j.j.j.j.g.k.h.%X$X*XrXtXlX(.U J m e e e y k s y y t e y ",
"p p i y s c c s t p k Z /.,XE.^ / ( ( `.].].`.`.'.&.=.>.1.1.1.1.1.#X$X$X$X$X$X*X*XrXtX;XtXlX4XQ.D s a e q t p i p c d p y y t y ",
"p p s y c x s y t p B a d ~.,X:XE.E. X X X XoX+X{.{.{.`.[.[.XXXX-XwXlXzXlXjXjX4X5X2X(.^.T.L M e e s c e e e r p a c d y y t y r ",
"p s s p v d d a y p B s r d U ).,XhX,X,X<X<X<X<X>X+X+X+X+X@X<XjX2XT.K H H J J S m m c a t t t y y i c e 0 e r p p d d y y t t p ",
"s s d s s v k y t p d y r a r i S J K U U Y T./.2XgXkXgX).^.T.D d d p q 0 e y t t a l i y a j y t r s e 0 e r r p d s s s t e i ",
"d p d s y a y y t y y r e s y e r j j y e r d p f D F S Z d x e e s c r e t i p t h j j y y x a y u p r 0 e r y a d s a a r e r ",
"B y s p t y y e r y p y e r y e y k c p e i d r 0 e r t x p d h t d c y e e t s p y h a y y x a s i p y 0 e r y x s s y p r e e ",
"B i a p e y y r p p s y e r e e y h j a e t x y 0 e e d c c d y y d c e y y e s c s t i e y c d s p p p e e r y k d a y s s y r ",
"B v s t q y x x s x s t e e e e s j h h e e i y 0 e t i v c s y y d s e r x y s c v y e y y s d p s s s y y e t s k j y a s r u ",
"c s d e q t v k j x y e e r e e x x y h u y y e 0 e i i x c u t t y y e e a k j x c p e e y p c d s p i p a r r a k c a a j p p ",
"s y c t q r v l j y t y t r r e v v t h i y t y q q y i x s e t a t p y t t k V v c x e e e y d d p r y p p y y y d c a y a a s ",
"r r p j q t j j l y y t t t p y s x h g y y y y e e u y x i q y a t y j y t x c c x s p e e r s s p r r p a y t e s x p p p j s ",
"e y j a h t y z h y t y t y r p y y x h y i t t e e s g h t t l j t t y a y y a d x s s r e r r p p r r p p a r e r y r s s a k ",
"r y k x l g h l l t r t y y r p i h a h h y t e q y c x g g g n l g g g j y a p a a s s a y y p p y r y a p a y r e e r p s s v ",
"t k V z l g l z l e t y a a y y j x s i y r e e q y c v h g g n h t h t h y a y a a a a j h y y s d y r j y t y s p r y s y s j ",
"y v V V l h x B j u p x j s j j y s s y y r r 0 q t s l h j y v g t y p y y r p a a a a k x l j p v y y a p e r d d e r s a s j ",
"g j V b h a x v s s p a y s s y y s a y r r r e q t y y g j h v y r y s y y e p d x x s k x k j s c s a a a e e d d y r p s y j ",
"w g z v h l j x s d s y t y a t t p p e e y r e e e y p t y j v y r y y a r r i s k x j s s k p y s x s x y q e d d y e r s j a ",
"w t s j g s h s s s a y e t h y e p p e e p s e e e y y e e s j y s r e j y r r d k x j x s x p r j x s k j t e s B p t r s v s ",
"t t y y i j y y a s y y y t y y y a r 0 e d s r i y y y e e s s i d r e y i r p d k x a j y j h y j j s d c j t p c s e e y j a ",
"g g y y y y e y a y y a y e y h h j r 0 y k p y s p y u e r p x y d s t y i y a d k x y y i y t t j i l x k s t y k x y t r y a ",
"y s h i y y t t p y y p p y y h j h y q y x t y d s p i e e s d p d s h a a y p d s j y y y y t t h j l j j a y p k s t y r e p ",
"s s c h y y t y i y y s s r e v j g g e y x e e a c x y r r v d s B c l c k s y s p h t y t h y t y s j c x a y s d p r p y y y "
};
