/* XPM */
static char *result[] = {
/* columns rows colors chars-per-pixel */
"64 64 30 1 ",
"  c #1B8F03",
". c #1E9303",
"X c #1E9902",
"o c #208F04",
"O c #249504",
"+ c #2A9606",
"@ c #259A04",
"# c #2C9B06",
"$ c #2D9708",
"% c #2F9B08",
"& c #309707",
"* c #329D07",
"= c #349D08",
"- c #3A9E09",
"; c #26A104",
": c #2DA206",
"> c #2FA108",
", c #33A207",
"< c #38A307",
"1 c #34A907",
"2 c #3AAA07",
"3 c #35A208",
"4 c #3BA309",
"5 c #36A908",
"6 c #3BAA09",
"7 c #3CB10A",
"8 c #419F0B",
"9 c #42A30B",
"0 c #41AC0A",
"q c #43B10A",
/* pixels */
"9=&&=O O+$&-$&&3,,1;#+O++-9<**::201;*32%*#,=&#2,O##*3+#*&++++++&",
"9=O%3. O$$&-&&=*#,,#+##+O&-43&;1<01;#<,**:13=+2:O%#+:#,-*+##+++#",
"8&+O%O O+$$$+%-,*<,%++&+oO#<3##,,67@O:,,*#2*<+1;O@#+#,<93+**O+##",
"8-$OOO.O++&&O%3##3,%#O#,+++3<#:,1:7@O#:2,#,#3+,#O###,,40*#=*O+*#",
"--&++OOOO+=&+&=++3,=&O@>+&%3,##:,#1;O@;3*#2*,#:++*+@,:49%#3#O+=*",
"&&&$++OOO+==+=<*%=*=-OO#%&--*#+#*:,,@#O*,:,:*:#+==O@#,06#&-,+#==",
"-+$&++++O+&-=--=*<==-%###&44&####,::;@O@112###*#<4+O#=943*-&##==",
"&++$++&#+O&---=*=6==43,=3*-4&+#:##+,:@O@#::##@3**4#@#396,=<*##&-",
"#OO+&+++=++-88&&*<<-44,<2<#-*###@#@,#*#@#@@,#@,213+O+=9*@%<*#*3&",
"%OO+%+++=+&---=+33=6<,1,4<####*#+#@:%=1##@@*:#*2,1+@:==@.O#3*,3,",
"-+++O##++&&=--&&,,<6<#,24<###,*+OO##:<<*###*#,*2,#.@,3#O .+,<32,",
"2##%O%&#+=&&=*=&*#346,#62#*,,#==OO**#<4=%,#+,<=,,@.@*=*+OO#,<-,:",
"=#3*+#=*+&+#&%%**#:221;32#@,&+*4+O&#:<<=%%%+,,=,2#@@:*,#@#=34*#:",
"+#-,#+=#####%+*#:::1,2#,1+###O=9$O#*#*3*#*&%*3=,:*###*1#@+&>,,#:",
"@%*,:+&**#%%#+*#:,#*323*,%**+.=9=O&3#%*#*&=+#&=,*<#:>**1;@@:#1:;",
"#3#:####,:#:+@**####3063,,-,@ =8=O+=,*%#%==%*******:%**:,+@@:23:",
";,::@@@#;+#:++#<#@##,092,,-4%.+6<@+&*,##&-=%*=*,*=3,#%,*1#@#;11#",
"@22#X@@##++###+2:@+#364<,#=4<@+=<+#O**&#=-=**,:#==<,:#3261#@:22:",
"#15@O@:,#+++<&+21@O+%223,,===#+*=##@++&&=-%**:1:<-<1:#,q66:;1,1:",
"#;1#@#1:+%#,<-+1,OO@#3,,,34=&##=<+,%O+%&=-%,3#3,<241:,,062:152;1",
"3::;+31###+3=4%,,OO+&3*:,*24#+#&*@==O+%+=-O3,:,,<66,#,10q5:,65;;",
"61;:,21;++#<*<&1:@+#=<3#:*36#++&+@=*@+++=-+#2#**39<,#;,0q51:56#%",
"43:#<2,@@#&4=-33#O&*--##+*<*#OOO@#-&@+%%,,@#:>#%#23*#@;6q61#,1:#",
"33,&=3=O@+%6<=*3#+*&*=&#@#&*##OO+*4*@+%O::@#:,+O@,#*:#@366,#:11;",
",33,+**O.O+29=#-*+<*++*+O++#==OO%36*.+,O:,###,#+@:@##@@#31;@;:##",
"#,2#+O++O.@40=O*,:2=&OO+Oo@:94%O+34,X@3##,>+*=3,,#@O++##33;X@,#>",
"#*3**+o$. X69-O+*=<==+o++ @,6-+O+3+;X@%%##:>=<11,:@@+###,,@X@#=,",
"#,32&+o+O.#063%+*3<--&Oo+ @29<+++#O+@@#%*#;,33661,#@+*++:;@XX#,,",
":,3,++OOOO#4443%%33=&O+Oo+@69-*#O##%@X#%*::#*3671,::,%+#:#;@X%::",
"@%*:@#=O+O+933,,:33=%O++OO+94&,#%%%+O.@,#+:,*3221:,3,%#1:+;@O#:#",
":*%&@+*&O+*9*#,*3,<=%O#& O*9-**++%*%+O+,*%::&3,,2*%36*#,#+;++%1;",
":1+O%@*<O+*4*+,3443*&@O&OO39-=*%&O@,%++=<#:+#=%#6*+&9,,,,#@#*,3,",
":,#@##*=*+&<*#,*2,,###++OO-9-3,&=+.,%@%3<+;@+*#+<,++-23:#+@#,,,3",
"::.@#O+,3#3*,:<*=3:##*#%+@-9*3**<&@%##&<=%#@O%#+*<&O343+@@@#*#+1",
":+..O++#1#,,<,::<=###*=+O*44*3=%--:%:+&<3#+@O#++#-&O,43+@;@#=,;1",
"*@.OO&=#*%##,,,,3*##@,6#@3<3#3-&9<>3<%%-&#@#+++@&-&O:3&+@::#**;,",
",O+#O&4*O=*%*,:*<#@#@#2*+34,#3=--21243O%*#+#+%+O#-%+#:,+#2;@#,::",
"#O+#*==%%-=+&=*3-&+##%=3*,,#*13693*,03++&++@#++O+=&&#1:#3,##;###",
"OO@%<=*O+--%+***==,*##=333,:,:,69,*36,++#+#+@@O++&&,#::#,3#;:##@",
"OO%#-<*.+8-++=#,==<<=&<**<1:#,*36,#&2,%+#&&#@@OO+&&*##%+*=*:::;#",
"+$*#<-,.O-4#O&*#**46-&*##2=;,=#,<=%%<%&++*=#@@+&&%=###&#:==&#;##",
"$&*#-<4@O*9#O+&#+#,9<*#++*-+%=%@-9%+<+#*&*=&+#:=*&-&@#%+*<=+#@@@",
"&$=*=44*@#4*+@###:<9=*%+#*=#**+@=9#+*#&=-=<##*#**=4+O@++*4-%##OO",
"&$=&43**+&9=##+#,,34,#&#;%%%**@O=9&OO<&*-23***+#%=<OoO$+&4-%##+&",
"$=3&<43>@*9*+=+O%<4<*+&*#%%:==@.&9=O@&*<=2<&##+#O*4O OO&&-=%#@O&",
"==-=*43%+*-#+3+.O<6*%#*,@%>#&4,.+-<OO#=#+*2,##,#++=O O$$&--*1@O%",
"-===#*#+++#+@&#@%<<=+#=*O@>%344#+*4+@O#&+;1*##3%%+&O O+#*==*=OO+",
"4%=*+#@++#*+O#+@#32&O+3% @#&<=3%#*4#@O+*##:#+:<*&%*&.O++3-=*&+OO",
"9,=&@+#+&&*#@O@O#1:&O@3#..@*433##-<@++O=4,@%@#--=&&&OO++,<##*=%O",
"9==O@+,,*3*@OOOO>,::OO%@ O+&44=##==O+<&=43+@++-4===%##++=23#*=&%",
"<*-O.@,3<,#@@OOO3,@1#++@.O#%34%@+##O@#2=39*O@+*4-&&%#&+@&-4***&%",
"&%-#.#,1,#++++&O63+;%##+..+>3=O@#+###+<634=OO@#=-%$%*&#+#42&#***",
"O%*,.@:21;+#@@#+,,#:#&#@.O##3+.#,@#,#@,243=&OO+*-&#+&**+O=,%=&3=",
"+%*,;##21@+@#+&+%#,:#%@@.+%:>##5,@@#*#%*3,3=+O+&&+++&#:+O++%=&&2",
"@#2,1;:2:@O###+&#*3:;%@@.+43;;;71;;;,##%,=*=*++#=&++**%#+OO&*&*2",
"+,0<1;,0,O+:**##,,=##+OO@@46;;;7:#;#*#*%***&3:#*==%+,&++=&O+=%*,",
";3q01:39,%&,***,#==#+@OO.@,3:>;6;++#:+%%=*&*<3,,&6++**OO--O+=**:",
";,06>,=63*=,#3<#+*=%+++O.O*#;,,5:+%,#+O&<=33<,2**4,***OO--%O==**",
"@;41:1,3=-=#@##++=++O+&O.O###@,3#+%+*++%<<33-3-&%=,3=:.O--&O#=3,",
"X@,,:#:*==&+O#:#O=+oO=&OO@%%OO=3%&+O*%++=<33*=3#@*3*-3@O=9*O+=,*",
"@@###:##**#+@@#;#*% @<&%%+#+OO=*&-+O##%#-<<#,:,:+,3,<4*@&4*@O#<*",
"#;####@+*#%*+@##:,O.+<&#=&%+O+&,&-&@+:#&-<,####@#:,,3<3+#<3++@##",
"%*:#%#@+*##*&#+1,>@.#<O+<=*%O@--%43:**#&-=:####@@:%1,*,#&-=#&+O&",
"3=3,*;@##+#=&#+,,#;@%3@O*<3%++3<&9<1<<=&==;++#:#@%,,2<#*&-#+*#+#"
};
