/* XPM */
static char *result[] = {
/* columns rows colors chars-per-pixel */
"64 64 237 2 ",
"   c #010100",
".  c #0B0202",
"X  c #060A01",
"o  c #0A0B04",
"O  c #0B0B0B",
"+  c #080708",
"@  c #110D0C",
"#  c #140A04",
"$  c #0D1302",
"%  c #121B01",
"&  c #14110E",
"*  c #1B150B",
"=  c #121507",
"-  c #120F10",
";  c #141313",
":  c #191513",
">  c #1B1B1C",
",  c #191818",
"<  c #0F0F10",
"1  c #231D19",
"2  c #291109",
"3  c #192600",
"4  c #1D2C00",
"5  c #1A2308",
"6  c #1E280A",
"7  c #23290D",
"8  c #253701",
"9  c #272319",
"0  c #372B13",
"q  c #373115",
"w  c #232323",
"e  c #2C2B2C",
"r  c #2C2825",
"t  c #302C29",
"y  c #322821",
"u  c #343233",
"i  c #3B3B3C",
"p  c #393635",
"a  c #35302E",
"s  c #590000",
"d  c #520C0E",
"f  c #670000",
"g  c #63080B",
"h  c #4A3819",
"j  c #473E36",
"k  c #443428",
"l  c #722F2F",
"z  c #2C4300",
"x  c #324C00",
"c  c #365100",
"v  c #3B5901",
"b  c #3A4F13",
"n  c #504E1D",
"m  c #426300",
"M  c #466800",
"N  c #496E00",
"B  c #4B6B0B",
"V  c #4C7200",
"C  c #547D02",
"Z  c #56741C",
"A  c #58751D",
"S  c #5D7C1F",
"D  c #4E6819",
"F  c #594335",
"G  c #4B4E2C",
"H  c #644D22",
"J  c #6E5333",
"K  c #576C2C",
"L  c #616327",
"P  c #444344",
"I  c #4D4643",
"U  c #4B4A4B",
"Y  c #4A4747",
"T  c #514A46",
"R  c #574D47",
"E  c #5A524B",
"W  c #545454",
"Q  c #5B5B5C",
"!  c #5A5556",
"~  c #4F5050",
"^  c #655B53",
"/  c #725947",
"(  c #6E645C",
")  c #77675B",
"_  c #6A7356",
"`  c #626263",
"'  c #6C6C6D",
"]  c #676869",
"[  c #786D66",
"{  c #796D66",
"}  c #7C7169",
"|  c #7D7C7C",
" . c #727171",
".. c #6D6D70",
"X. c #8D0C0F",
"o. c #B6161C",
"O. c #B91217",
"+. c #A91116",
"@. c #B8262B",
"#. c #EE1C25",
"$. c #F11D25",
"%. c #F0272F",
"&. c #DC181F",
"*. c #88672D",
"=. c #916E32",
"-. c #BA3B40",
";. c #D73B40",
":. c #8A6B55",
">. c #897D73",
",. c #8F7A6A",
"<. c #B47072",
"1. c #B3675A",
"2. c #F6595F",
"3. c #5E8C01",
"4. c #588303",
"5. c #639501",
"6. c #669900",
"7. c #6A9D03",
"8. c #6C9D0A",
"9. c #67930D",
"0. c #6EA108",
"q. c #72A50C",
"w. c #75A90E",
"e. c #7AAD13",
"r. c #77AA12",
"t. c #7EB118",
"y. c #678826",
"u. c #749A2A",
"i. c #6F8E32",
"p. c #7CA529",
"a. c #7FA238",
"s. c #82B51B",
"d. c #85B81E",
"f. c #B2883F",
"g. c #82AD2C",
"h. c #87BA21",
"j. c #89BC23",
"k. c #89B72E",
"l. c #89B531",
"z. c #8EC228",
"x. c #8DC027",
"c. c #92C52C",
"v. c #95C82F",
"b. c #97CA31",
"n. c #99CC33",
"m. c #98C839",
"M. c #9CD034",
"N. c #B28A47",
"B. c #96897D",
"V. c #81837C",
"C. c #A78268",
"Z. c #B6967C",
"A. c #92AC5E",
"S. c #C79B50",
"D. c #D2A55A",
"F. c #CB9A79",
"G. c #E5BD7C",
"H. c #A2D243",
"J. c #A7D647",
"K. c #ABD656",
"L. c #A6CD58",
"P. c #B7E659",
"I. c #B5DB67",
"U. c #BCDE77",
"Y. c #BBE369",
"T. c #CCFC6A",
"R. c #ECC27B",
"E. c #7E7F81",
"W. c #827F80",
"Q. c #7E8081",
"!. c #848485",
"~. c #8C8C8D",
"^. c #898687",
"/. c #948E88",
"(. c #939394",
"). c #99999A",
"_. c #90938B",
"`. c #A7998C",
"'. c #B8928A",
"]. c #9BA585",
"[. c #B9AA9B",
"{. c #ADA79D",
"}. c #B3B4B4",
"|. c #BCBCBD",
" X c #AEACA8",
".X c #C4978E",
"XX c #DEB189",
"oX c #D5AC8D",
"OX c #E8BA98",
"+X c #F2BF9D",
"@X c #CCBAAA",
"#X c #C7B6A7",
"$X c #C4B0B1",
"%X c #B7CB8F",
"&X c #F3C19F",
"*X c #E7C38E",
"=X c #CDED8C",
"-X c #D8C6B5",
";X c #D3CFB2",
":X c #E9C6A7",
">X c #F5D8A8",
",X c #E3CEBB",
"<X c #EAD1BA",
"1X c #F5CFB3",
"2X c #DBEDB7",
"3X c #D3E7AB",
"4X c #EAFFB7",
"5X c #BCBEC0",
"6X c #C4C5C5",
"7X c #CACBCA",
"8X c #D3D3D4",
"9X c #DBDCDD",
"0X c #D1CFCC",
"qX c #E7D3C1",
"wX c #EAD5C3",
"eX c #ECD8C6",
"rX c #F4DECA",
"tX c #F5DBC6",
"yX c #E0DFDD",
"uX c #F5E0CD",
"iX c #F8E3CF",
"pX c #FBE9CC",
"aX c #E5F2CB",
"sX c #F9E4D0",
"dX c #FCEAD3",
"fX c #EEFCCC",
"gX c #E3E3E3",
"hX c #ECECEC",
"jX c #E7E7E8",
"kX c #FBF7EB",
"lX c #EFF0F0",
"zX c #F4F4F4",
"xX c #FEFEFE",
"cX c #FCF7F3",
"vX c #FAECE8",
"bX c #DEE9C9",
"nX c None",
/* pixels */
"nXnXnXnXnXnXnXnXnXnXnXnXnXnXnXnXnXnXnXnXnXnXnXnXnXnXnXnXnXnXnX              nXnXnXnXnXnXnXnXnXnX              nXnXnXnXnXnXnXnXnX",
"nXnXnXnXnXnXnXnXnXnXnXnXnXnXnXnXnXnXnXnXnXnXnXnXnXnX          w Q !.(.| U ;       X             , ~ | (.!.W >     nXnXnXnXnXnXnX",
"nXnXnXnXnXnXnXnXnXnXnXnXnXnXnX          nXnX      $ 7 7   O  .9XxXxXxXxXzX7XW   o G K K D O + W 7XxXxXxXxXxX9X' O   nXnXnXnXnXnX",
"nXnXnXnXnXnXnXnXnXnXnXnX    , P ] ' U +     = n i.L.I.G + ^.xXxXxX9X!.U Q {.gXQ   i.T.T.K + ` lXxXxXhX(.W W ~.gX|     nXnXnXnXnX",
"nXnXnXnXnXnXnXnXnXnXnX  O ] 8XzXxXyX`   , i.L.T.4XfX%X@ e 8XgXyX8XP         E.}.< 9 P.P.7 ; |.gXgX9X]         Q 6Xw   nXnXnXnXnX",
"nXnXnXnXnXnXnXnXnXnX  + | xXxXxX5Xu X K K.=XfXkX2XY.i.  O > w > ,           + >   = l.l.o   > w w >             > +   nXnXnXnXnX",
"nXnXnXnXnXnXnXnXnXnX  i 8XxXxX}.> = i.T.fXcXzX=XM.n.g.A A Z Z Z Z A A A A A Z Z A S c.k.S A A A Z Z A A Z A S i.i.6   nXnXnXnXnX",
"nXnXnXnXnXnXnXnXnXnX  ] 0XxX6X> ; a.Y.fXxXaXK.n.n.n.n.M.M.M.M.M.M.M.M.M.M.M.M.n.M.M.n.n.n.M.p.p.n.n.M.M.M.n.p.g.K.l.7   nXnXnXnX",
"nXnXnXnXnXnXnXnXnXnX  ` 6X8Xi   y.J.aXxX2XJ.n.n.n.n.b.n.n.n.n.n.n.n.n.n.n.n.n.n.n.M.n.n.n.g.* $ u.n.b.n.b.u.o 5 l.M.u.=   nXnXnX",
"nXnXnXnXnXnXnXnXnXnX  u }.]   b n.2XxX2XH.b.n.n.n.n.n.n.b.n.n.n.n.n.n.n.n.M.v.z.j.t.t.e.e.C X   V e.r.e.e.B   X 4.e.e.v     nXnX",
"nXnXnXnXnXnXnXnXnXnX    U > X 9.I.cX2XM.b.n.n.z.j.v.n.n.n.n.n.n.b.n.n.c.j.e.0.7.6.6.6.6.6.5.x 8 3.6.6.6.6.4.8 x 5.6.6.3.%   nXnX",
"nXnXnXnXnXnXnXnXnXnXnX      8 h.2XaXL.n.n.b.h.0.6.0.j.n.n.n.n.n.n.v.t.0.6.6.3.4.C N V N V N N N V V N N V V N N V 4.3.6.c   nXnX",
"nXnXnXnXnXnXnXnXnX    , >   c k.aXK.n.n.b.n.t.5.6.6.t.n.n.n.n.c.t.7.6.4.v 8 % o X o O X   X X O O O O   X X o O o o $ 8 8     nX",
"nXnXnXnXnXnXnXnX  + ! 7X`   m m.U.n.n.v.n.n.c.t.q.e.c.n.n.n.j.0.6.V 8 o o O + Q ~.(.).W     e (.(.).Q     O E.(.~.]   - -     nX",
"nXnXnXnXnXnXnX    ` zXxXQ   M j.m.z.r.q.j.n.n.n.b.n.n.n.n.s.7.4.z   , ^ Z./ X | xXxXjXi @ 1 ; 6XxXzXU = G . ~.xXxX^.  >.[.9   nX",
"nXnXnXnXnXnXnX  , 8XxXxXQ   M h.n.h.5.5.e.n.b.j.v.n.n.b.s.6.V % + E #XuXeXoXk O Q.|.Q + ) C.o i }. .  ^ .X9 > ).).; p -XsXT   nX",
"nXnXnXnXnXnXnX  u gXxXxXQ   M d.n.v.d.t.c.n.h.7.e.b.n.h.7.M $ ; B.eXuXuXuX<XoXR , : 9 >.wX:X,.r : , ( <X1X'.G : , I @XuXuX^   nX",
"nXnXnXnXnXnXnX  w 5XlXxX`   M d.n.b.n.n.n.n.c.s.z.n.z.0.V $ : `.uXuXuXuXuXuXtXeX-X@X-XiXiXiXtX,X#X-XuXuXrXrXqX@X@XwXsXrXsX]   nX",
"nXnXnXnXnXnXnX  + Q.7XjXQ   M d.n.n.n.b.h.e.h.n.n.n.e.3.3   /.iXuXuXuXrXuXuXuXuXsXuXiXrXrXuXsXuXiXuXuXuXrXuXuXsXsXuXuXuXsX(   nX",
"nXnXnXnXnXnXnXnX  > ~.5XU   M d.n.n.n.d.5.5.7.j.n.z.0.c   ^ tXuXuXuXuXuXuXuXrXrXsXsXiXiXuXuXrXuXuXrXuXuXsXsXsXsXiXrXuXuXsX)   nX",
"nXnXnXnXnXnXnXnXnX  ; ! u   M d.n.n.n.h.7.6.7.j.n.d.3.$ : #XuXuXuXuXuXuXiXrXiX-X`./.`.#XtXsXrXuXuXuXiXuX@X`./.`.-XuXuXrXrX(   nX",
"nXnXnXnXnXnXnXnXnXnX        M d.n.n.n.n.z.h.v.n.n.e.m   E rXuXuXuXrXuXuXiXwX>.1       @ E @XsXrXuXuX-X( :       w >.eXuXsX(   nX",
"nXnXnXnXnXnXnXnXnXnX  O ;   M s.n.h.r.h.n.n.n.n.b.q.z   B.sXuXuXuXuXrXuXwX^   . j ( R :   a @XuXuX<XT   O T ( G   X } rXrX[   nX",
"nXnXnXnXnXnXnXnXnX  , {.Q   M w.v.q.5.q.b.z.t.h.v.8.4 O [.sXuXuXuXuXuXiX{.+ o V.eXiXuX[.r   ] uXiX/.  : `.uXsXeX>.  - #XsX(   nX",
"nXnXnXnXnXnXnXnX    (.xX`   M 7.j.v.h.z.n.s.6.q.c.8.3 < #XuXuXuXuXrXuXiX} O I eXuXuXuXsX>.- j eXuX( O ( sXuXuXuXqXj ; /.dX(   nX",
"nXnXnXnXnXnXnXnX  , 8XxX'   m 6.q.c.n.n.n.v.j.c.v.8.3 - @XiXuXuXuXtXeXrX,X@X;XuXuXrXuXuXqX@X@XrXuX-X@X,XuXrXuXuXuX-X@X-XtX(   nX",
"nXnXnXnXnXnXnXnX  w 6XxX(.  x 6.6.q.z.n.n.n.n.n.n.8.3 - @XuXuX<X:XXXOXOX:XtXuXuXuXuXuXuXiXiXiXuXuXsXiXuXuXrXuXuXuXtX:XOXOXR   nX",
"nXnXnXnXnXnXnXnX  < (.9X5X; % 5.6.6.8.t.z.b.n.n.m.r.3 - @XuXrXOXXXXXXXXXXX:XuXuXuXuXuXuXrXuXuXuXuXrXuXuXuXuXuXrXuX<XOXXXXXF   nX",
"nXnXnXnXnXnXnXnXnX  i }.6Xi   m 6.6.6.6.7.q.r.e.s.q.3 ; #XiXuXtX:X:XOX:X:XtXuXuXiXuXiXuXuXuXiXiXuXuXsXuXiXuXuXiXuXrX<X:XXXy   nX",
"nXnXnXnXnXnXnXnXnX    i ).!.O % 3.6.6.6.6.6.6.5.6.5.3 - @XiXuXuXrXuXrXrXuXuXeXqXqXqXqXqXqXqXqXqXqXqXqXqXqXqXqXqXeXrXuXsX[.O   nX",
"nXnXnXnXnXnXnXnXnXnX    < i ;   8 5.6.6.6.6.6.6.6.3.3 - @XiXuXuXrXuXiXrX@X} R U Y I T T T I T U T Y I T T T I U R } @XrXE   nXnX",
"nXnXnXnXnXnXnXnXnXnXnXnX          8 3.7.6.6.6.6.6.5.3 - #XiXuXrXuXuXsX@XP Y !.(.U p ~.(.Q e W.(.~.p U (.(.Q e !.!.Y j >.O   nXnX",
"nXnXnXnXnXnXnXnXnXnXnXnXnXnXnXnX    4 C 6.6.6.6.6.5.3 - #XiXuXuXrXsXsX>.u |.hXhX .U gXlX(.p 8XlXgXY  .lXlX~.p 8XlX5Xp -   nXnXnX",
"nXnXnXnXnXnXnXnXnXnXnXnXnXnXnXnXnX    $ c 3.6.6.6.5.3 - @XuXuXuXuXrXiX/.a 7XxXxX| U zXxX).p gXxXzXU | xXxX(.i jXxX7Xu - nXnXnXnX",
"nXnXnXnXnXnXnXnXnXnXnXnXnXnXnXnXnXnXnX    % x C 5.5.3 < @XiXuXuXuXuXsX-X^ j | ~.U u ^.~.Q r | ~.^.a Y ~.~.! u !.W.j > nXnXnXnXnX",
"nXnXnXnXnXnXnXnXnXnXnXnXnXnXnXnXnXnXnXnXnX    X 3 z % O [.iXiXiXsXrXrXsXqX`.>.{ { } { [ } } { [ { } } } [ E 1 ; - - nXnXnXnXnXnX",
"nXnXnXnXnXnXnXnXnXnXnXnXnXnXnXnXnXnXnXnXnXnXnX          r ( `.#X-X,XqXqXqXqXqXqX<XqXqX<XqX<XqX<X,X@X[.B.E 1     nXnXnXnXnXnXnXnX",
"nXnXnXnXnXnXnXnXnXnXnXnXnXnXnXnXnXnXnXnX  X         + +       : 9 r e e e e t t e r e t e t e e r 1 <     nXnXnXnXnXnXnXnXnXnXnX",
"nXnXnXnXnXnXnXnXnXnXnXnXnXnXnXnX      O > P ] V.].].].B._ >   7 S Z 7   w U U U p +       nXnXnXnXnXnXnXnXnXnXnXnXnXnXnXnXnXnXnX",
"nXnXnXnXnXnXnXnXnXnXnXnX        ; P |  X|.3X=XI.K.J.M.J.H.p.% $ p.M.p.= , P Y P P <       nXnXnXnXnXnXnXnXnXnXnXnXnXnXnXnXnXnXnX",
"nXnXnXnXnXnXnXnX              K 6XbX3XI.H.n.b.b.b.n.v.d.e.0.4   y.M.M.D   < e e e e O     nXnXnXnXnXnXnXnXnXnXnXnXnXnXnXnXnXnXnX",
"nXnXnXnXnXnX    + , j ) ,.y   D L.H.n.v.n.n.n.n.v.t.0.3.4.c   5 g.M.M.k.% , ` ` ` ` e       nXnXnXnXnXnXnXnXnXnXnXnXnXnXnXnXnXnX",
"nXnXnXnX      t ,.@XdXcXkX'.@ $ 4.c.n.n.n.n.c.s.5.V x 3 X   5 y.n.n.n.b.b   ; > , > ;       nXnXnXnXnXnXnXnXnXnXnXnXnXnXnXnXnXnX",
"nXnXnX    - ) OXiXtXtX1XrXkX)   4 0.z.n.c.d.3.c 3   O 7 D y.k.n.n.n.n.M.A + i ......` ; X X   nXnXnXnXnXnXnXnXnXnXnXnXnXnXnXnXnX",
"nXnX    : C.&X&X+X+X+X+X&XrXeXq   c 7.w.3.x $   5 D p.c.n.M.n.n.n.n.n.M.u.  < > > > > + + 4   nXnXnXnXnXnXnXnXnXnXnXnXnXnXnXnXnX",
"nXnX    F .X,.XX&X+X+X+X+X&X1XZ.& o N m %   $ m 5.v.n.n.n.n.n.n.n.b.n.n.p.$ > W Q Q Q w X c X   nXnXnXnXnXnXnXnXnXnXnXnXnXnXnXnX",
"nXnX    * * # :.+X+X+X+X+X+X&XOXJ   $       x 7.6.e.b.n.n.n.n.n.n.M.n.n.p.$ O e i i i ; X N 3   nXnXnXnXnXnXnXnXnXnXnXnXnXnXnXnX",
"nXnXnX    2 ,.OX+X+X+X+X&X+XOX<.1     j y   C 6.6.6.0.e.t.h.d.j.h.t.t.e.4.X O > > > > + X 4.x             nXnXnXnXnXnXnXnXnXnXnX",
"nXnXnX    O / :.k / OX+XXXXX:.2     o :.1 $ C 3.3.3.3.3.3.3.3.3.3.3.3.3.M   , i i i i ; X C m   > U i ;       nXnXnXnXnXnXnXnXnX",
"nXnXnXnX    .   & / F.F.1.F #         +   . % % % % % % % % % % % % % % $   + @ O O O     % $   W zXzX8XB.9       nXnXnXnXnXnXnX",
"nXnXnXnXnX      * F J k &         + k @           . . . . . . . . . . . + O @ @ < < < O O O O   U xXxXdXG.=.=     nXnXnXnXnXnXnX",
"nXnXnXnXnXnXnX                      o           . 2 g X.o.o.o.o.o.o.o.o.@.-.1.1.W.'..X$X6X7X(.  ` xX>XD.*.0       nXnXnXnXnXnXnX",
"nXnXnXnXnXnXnXnXnXnXnXnXnXnX        , i ~ ~ i w +     # d +.#.$.$.$.#.#.$.$.$.#.$.%.%.2.vXxXW.  B.*Xf.H o       nXnXnXnXnXnXnXnX",
"nXnXnXnXnXnXnXnXnXnXnXnXnXnX    w | }.7X8X9XjXgX}.!.U ;   . d &.$.#.#.#.$.$.#.#.$.$.#.;.cX6X> 0 S.=.0 X     nXnXnXnXnXnXnXnXnXnX",
"nXnXnXnXnXnXnXnXnXnXnXnXnX    p }.8X8X8XgXxXxXxXxXxXzX7XQ     d O.O.O.O.O.O.O.O.+.X.X.W.6Xu # J H *       nXnXnXnXnXnXnXnXnXnXnX",
"nXnXnXnXnXnXnXnXnXnXnXnX    : N.*X;X0X9XxXxXxXxXxXxXxXxXzX|     2 f f f f f f f f l <.'.1 . n h o     nXnXnXnXnXnXnXnXnXnXnXnXnX",
"nXnXnXnXnXnXnXnXnXnXnXnX    & H *.f.S.G.>XuXkXcXxXxXxXxXxXzXP   . s f s s f s g l ! u + 2 h *       nXnXnXnXnXnXnXnXnXnXnXnXnXnX",
"nXnXnXnXnXnXnXnXnXnXnXnX        . * q H *.f.D.G.>XpXkXxXxXxX).    . . . . . . O + * n H q o     nXnXnXnXnXnXnXnXnXnXnXnXnXnXnXnX",
"nXnXnXnXnXnXnXnXnXnXnXnXnXnX            X * 0 H *.N.D.R.>XdX{.X     nXnXnXnX      h H 9       nXnXnXnXnXnXnXnXnXnXnXnXnXnXnXnXnX",
"nXnXnXnXnXnXnXnXnXnXnXnXnXnXnXnXnXnX            o * 0 H *.N.J     nXnXnXnXnXnX    X .       nXnXnXnXnXnXnXnXnXnXnXnXnXnXnXnXnXnX",
"nXnXnXnXnXnXnXnXnXnXnXnXnXnXnXnXnXnXnXnXnXnX            o * #     nXnXnXnXnXnXnXnX      nXnXnXnXnXnXnXnXnXnXnXnXnXnXnXnXnXnXnXnX",
"nXnXnXnXnXnXnXnXnXnXnXnXnXnXnXnXnXnXnXnXnXnXnXnXnXnX            nXnXnXnXnXnXnXnXnXnXnXnXnXnXnXnXnXnXnXnXnXnXnXnXnXnXnXnXnXnXnXnX",
"nXnXnXnXnXnXnXnXnXnXnXnXnXnXnXnXnXnXnXnXnXnXnXnXnXnXnXnXnXnX  nXnXnXnXnXnXnXnXnXnXnXnXnXnXnXnXnXnXnXnXnXnXnXnXnXnXnXnXnXnXnXnXnX",
"nXnXnXnXnXnXnXnXnXnXnXnXnXnXnXnXnXnXnXnXnXnXnXnXnXnXnXnXnXnXnXnXnXnXnXnXnXnXnXnXnXnXnXnXnXnXnXnXnXnXnXnXnXnXnXnXnXnXnXnXnXnXnXnX"
};
