/* XPM */
static char *result[] = {
/* columns rows colors chars-per-pixel */
"64 64 244 2 ",
"   c #010101",
".  c #0B0503",
"X  c #030C00",
"o  c #090D01",
"O  c #060609",
"+  c #0C0B0C",
"@  c #1C0004",
"#  c #140806",
"$  c #051300",
"%  c #0C1401",
"&  c #051C00",
"*  c #0B1B03",
"=  c #0E160A",
"-  c #151307",
";  c #131B02",
":  c #141B0B",
">  c #100E12",
",  c #141314",
"<  c #1B1513",
"1  c #1C1A16",
"2  c #171718",
"3  c #1D1B1B",
"4  c #310B09",
"5  c #231608",
"6  c #241C18",
"7  c #0A2301",
"8  c #092A00",
"9  c #1A2606",
"0  c #0E3601",
"q  c #163903",
"w  c #1C2318",
"e  c #232B0B",
"r  c #273707",
"t  c #232B15",
"y  c #27261A",
"u  c #362C18",
"i  c #28331B",
"p  c #1F1D20",
"a  c #211E22",
"s  c #1F2021",
"d  c #242324",
"f  c #2A2826",
"g  c #2B2A2A",
"h  c #352B23",
"j  c #322E2C",
"k  c #2C3029",
"l  c #343727",
"z  c #333233",
"x  c #3A3634",
"c  c #393738",
"v  c #3C3A3C",
"b  c #4C0000",
"n  c #560000",
"m  c #660404",
"M  c #790404",
"N  c #533F19",
"B  c #4D392C",
"V  c #433C37",
"C  c #413C3B",
"Z  c #0E4E00",
"A  c #154802",
"S  c #195602",
"D  c #35480D",
"F  c #395501",
"G  c #1A6602",
"H  c #1D7703",
"J  c #2C6803",
"K  c #247B04",
"L  c #287906",
"P  c #3F403F",
"I  c #624B1F",
"U  c #466A00",
"Y  c #4D7400",
"T  c #4F7800",
"R  c #537C00",
"E  c #517016",
"W  c #545D21",
"Q  c #514E36",
"!  c #6D542B",
"~  c #756934",
"^  c #3F4140",
"/  c #4B4746",
"(  c #524C4A",
")  c #57504A",
"_  c #535254",
"`  c #5A5758",
"'  c #705748",
"]  c #645A55",
"[  c #6C635E",
"{  c #76695B",
"}  c #686769",
"|  c #75706B",
" . c #7A7A7B",
".. c #8B090B",
"X. c #B51218",
"o. c #CD191F",
"O. c #D7171E",
"+. c #DA181F",
"@. c #EC1C24",
"#. c #F11C24",
"$. c #D42128",
"%. c #836937",
"&. c #A67D35",
"*. c #906F4E",
"=. c #997056",
"-. c #887B72",
";. c #D25B60",
":. c #1C8B03",
">. c #1E9203",
",. c #1F9A02",
"<. c #248404",
"1. c #2B8506",
"2. c #268B04",
"3. c #2B8C06",
"4. c #2C8A08",
"5. c #338C08",
"6. c #249504",
"7. c #2A9506",
"8. c #259A04",
"9. c #2C9B06",
"0. c #2E9708",
"q. c #319407",
"w. c #329C07",
"e. c #349C08",
"r. c #3A9D09",
"t. c #29A206",
"y. c #2DA105",
"u. c #32A207",
"i. c #35A208",
"p. c #3BA209",
"a. c #37A808",
"s. c #558200",
"d. c #598501",
"f. c #5D8A04",
"g. c #419E0B",
"h. c #608D07",
"j. c #649501",
"k. c #669900",
"l. c #6A9D03",
"z. c #659409",
"x. c #61831D",
"c. c #42A70B",
"v. c #6EA106",
"b. c #6FA209",
"n. c #71A40B",
"m. c #74A90B",
"M. c #78AB12",
"N. c #7EB117",
"B. c #668820",
"V. c #739A24",
"C. c #7DA926",
"Z. c #82B51D",
"A. c #87BC1E",
"S. c #AA823E",
"D. c #82AE29",
"F. c #89BB27",
"G. c #85B22C",
"H. c #8FBC36",
"J. c #8EC226",
"K. c #8FC129",
"L. c #92C52C",
"P. c #95C92E",
"I. c #98CC2F",
"U. c #97C736",
"Y. c #97CA31",
"T. c #99CC33",
"R. c #9DD134",
"E. c #9ED038",
"W. c #B28C4C",
"Q. c #92B945",
"!. c #8F8378",
"~. c #AF876A",
"^. c #B5947A",
"/. c #C39851",
"(. c #D7A95C",
"). c #D8AE68",
"_. c #D3AC79",
"`. c #9AC544",
"'. c #A7D44F",
"]. c #ACD757",
"[. c #B4E359",
"{. c #ADD163",
"}. c #BEE570",
"|. c #858585",
" X c #94908E",
".X c #969697",
"XX c #9B9B9C",
"oX c #AB978C",
"OX c #B7A18A",
"+X c #B4A696",
"@X c #BCAB9D",
"#X c #9E9FA1",
"$X c #A7A7A9",
"%X c #B2B0AD",
"&X c #B6B7B8",
"*X c #D7A888",
"=X c #D4AD8B",
"-X c #E2B885",
";X c #E5B996",
":X c #F1BE9B",
">X c #C9B7A7",
",X c #D0BEAE",
"<X c #D2BFB1",
"1X c #BEC2B5",
"2X c #EAC39C",
"3X c #CEEC93",
"4X c #D2C1AC",
"5X c #C9CEB6",
"6X c #D5C3B2",
"7X c #D9C6B5",
"8X c #D8C9BA",
"9X c #DDCAB9",
"0X c #EDC8AA",
"qX c #F5C5A5",
"wX c #E0CAB5",
"eX c #E1CEBC",
"rX c #E7D1BD",
"tX c #DEEFBC",
"yX c #BFBEC2",
"uX c #BEC1C2",
"iX c #C3C3C4",
"pX c #C7C8C7",
"aX c #CCCCCC",
"sX c #D7D6C6",
"dX c #D4D4D4",
"fX c #D7D7D7",
"gX c #DCDCDC",
"hX c #EBD6C4",
"jX c #F2DAC4",
"kX c #F6DAC6",
"lX c #F3DECB",
"zX c #E2DFDC",
"xX c #F5E0CD",
"cX c #F8E3CF",
"vX c #FAE4D1",
"bX c #F9E7D5",
"nX c #ECF5D3",
"mX c #DFDFE0",
"MX c #E2E2E2",
"NX c #ECECEC",
"BX c #F4EDE8",
"VX c #FBF5E8",
"CX c #F5F6F5",
"ZX c #FEFEFE",
/* pixels */
"c.e.q.w.e.>.>.6.7.0.9.r.0.q.q.i.u.a.u.8.9.8.8.9.7.r.r.5.1.4.:.&   , 3 +   0 1.1.1.<.3.3.1.<.e.<.8   > 3 ,   & L 3.8.8.7.e.7.6.q.",
"g.e.7.9.i.6.>.6.7.0.0.e.0.e.0.3.4.3.7.6.8.w.7.<.H K 0 % $ $ = w z XXaX|.z w $ $ * * * * * $ $ $ w g  .aXXXc w = 7 K 9.9.7.7.9.9.",
"g.e.6.6.0.6.>.>.7.7.0.e.2.K A $ X $ $ 0 L L 0 $ 9 9 9     2 } aXMXCXNXaXpXiXv   X i Q D i     v iXMXCXZXfXiXiX` > 7 K w.6.8.9.9.",
"g.r.7.7.6.6.>.6.7.7.e.L 7 * y d d z +   X 7 9 i Q.}.{.: , %XNXZXZXfX} f Q iX&Xc , E [.].W $ _ fXZXZXMX#Xz z .XiX .> 8 4.6.7.w.9.",
"r.e.w.8.8.7.6.6.6.7.L 7 , ` aXmXMX%Xd X w x.{.}.3XnX5X: , uXMXmXuXz       p } .X2 9 [.[.9 , %XmXgXiX/ +     O c XX3 X 4.8.7.e.e.",
"e.q.q.q.8.7.8.6.6.<.7 + |.mXZXZXaXv 9 l '.3XnXVXtX}.Q.r ; l l l k : ; ; = % w l : e H.H.9 * l l l l : ; ; : ; 9 l O $ 4.9.7.r.e.",
"e.7.7.q.7.9.7.7.6.H $ d &XZXZXpXz w Q.}.nXZXnX{.'.Y.P.G.G.C.C.C.C.G.G.G.G.G.C.C.G.G.P.Y.G.G.C.D.C.C.G.G.G.G.H.].Q.t X G 9.9.q.i.",
"q.7.7.7.7.7.q.9.7.Z , | uXCXaXz 9 `.}.nXZXnX].Y.P.Y.T.R.R.R.R.R.R.R.I.R.R.R.R.R.T.E.T.T.R.E.H.F.R.R.R.R.R.T.H.H.E.`.e $ K 9.w.r.",
"7.6.6.7.0.7.0.7.0.S : } iXaXz o V.[.nXZXnX{.Y.T.T.T.T.T.Y.Y.Y.Y.I.Y.Y.Y.Y.T.T.U.Y.P.L.L.P.D.e e D.L.L.L.L.C.e 9 G.R.V.; & L i.w.",
"0.6.6.7.9.9.7.6.p.<.X d XX .+ r H.tXZXnX].K.T.T.T.T.T.Y.T.T.T.Y.Y.Y.T.T.Y.L.L.L.F.F.n.l.v.f.X X f.v.l.l.l.R X o f.v.v.F X 8 q.u.",
"r.8.9.9.7.9.0.6.0.4.8 + ^ , = V.].BXnX].Y.T.T.L.L.L.T.T.T.T.T.T.T.T.I.L.L.m.l.n.b.v.l.l.k.f.e e f.k.k.k.l.d.9 r j.k.k.f.% $ 5.u.",
"p.9.9.9.6.9.e.9.7.4.G X     9 G.tXnX].P.Y.Y.F.n.l.n.J.Y.T.T.T.Y.P.K.M.v.l.d.d.R R s.R R d.s.Y U R d.R d.d.d.U Y R s.f.s.D o S 9.",
"i.w.e.u.6.0.w.9.K 0 $ 3 O o U `.tX{.I.T.T.P.N.j.j.l.N.L.T.T.T.L.N.l.f.s.U % % t t t w t : % % t t t t = o % t t t t % * r X & 3.",
"7.9.i.w.u.7.e.1.7   c %XP o f.L.{.U.L.P.Y.T.F.n.l.n.L.T.Y.Y.F.n.h.T 9 % e + >  .$X$X$X| +   2 .X%X$X .> O 2 .X$X$X|., , t   $ 2.",
"8.9.e.u.9.9.4.A X P dXMXc % f.K.T.L.n.b.F.T.T.Y.L.L.Y.Y.L.Z.v.R 9 % 1 V ^.*.3  .NXZXaXg + = 3 yXZXfXv 2 Q h &XZXCXXXd oX@X2 $ 2.",
"9.p.9.y.9.9.2.$ 3 pXZXmXc % f.J.Y.A.l.l.m.L.Y.L.L.T.T.L.Z.l.T 9 : V @XeXjX*Xf 2 #XiX/ 2 { ~.y z &X| + ) ^.h f yX&Xd j eXeXf $ 2.",
"t.u.u.y.8.t.2.X p fXZXmXv $ f.K.T.Y.F.N.J.Y.F.n.M.L.T.F.v.T % f +X9XxXcXxXrX^.h j x j !.7X2X^.h z f ( >XrX^.h x z x @XxXeX) * 3.",
"8.a.i.y.8.,.:.X , &XCXmXc $ f.K.T.T.Y.Y.Y.P.J.Z.K.T.K.b.T ; f >XcXcXlXlXxXxXlX7X,X,X6XhXlXkXjX7X,X,X9XxXxXjX7X,X,X7XxXcXrX` * 2.",
"t.a.a.8.6.8.7.& ,  XdXdXc $ f.K.T.Y.Y.P.Z.M.J.Y.R.L.M.d.; , +XlXlXlXxXxXxXxXxXxXvXvXvXlXlXlXlXvXvXcXcXlXlXlXcXvXcXcXxXxXeX] 7 3.",
"9.t.u.8.6.8.i.<.& d .X#Xg o f.K.U.Y.Y.Z.v.j.n.J.T.J.z.F X x 7XcXlXxXlXxXlXlXxXcXcXcXvXbXvXlXlXlXxXlXlXcXvXcXxXxXcXxXlXxXeX] 7 3.",
"i.t.t.t.9.i.a.y.G & 3 / 2 % f.J.Y.T.T.F.b.l.n.L.Y.A.f.% 1 @XxXlXlXlXxXxXxXxXrX6X,X>X,X4X6XlXlXlXxXxXlX8X<X<X>X,X7XhXxXvXeX) ; 2.",
"a.a.t.y.i.a.a.9.8.K $     % f.J.Y.Y.P.L.L.K.L.T.P.m.T % C eXvXlXxXlXlXlXlX6X-.y 2 6 1 2 x >XcXlXxXxX>XQ < 3 6 2 f !.9XxXeX] * <.",
"p.i.y.9.i.p.y.8.t.K $ , O % d.N.L.Z.n.F.Y.Y.Y.T.L.j.9 6 @XlXlXxXlXxXlXvXeX) > , 6 V g <   j >XlXxXeXx   2 f V 6 > 1 { hXeX] = 2.",
"i.a.i.w.e.i.i.6.H & z $Xz % d.n.F.M.l.m.L.K.M.F.P.h.% 3 7XvXlXlXlXlXlXxX>X> + +X7X9X9X@Xf   ) eXxX+X= 2 @X9X7X6X X. 1 6XrX` * 2.",
"w.u.u.w.8.q.i.<.& 2 &XMXc % d.v.J.L.L.L.Y.N.v.M.K.h.$ 3 4XvXlXxXxXxXlXhX-.y x 9XbXcXvXlXoXf x 9XeX) 6 ] hXbXvXbX7Xl j <XrX) ; 2.",
"u.a.p.9.9.6.7.<.X 3 gXNX` * R k.n.K.T.T.T.L.K.L.K.f.o 3 6XvXlXxXjXjXjXhX9X6X6XjXlXlXlXlXjX6X7XlXlX6X6XeXjXlXlXxXkX7X,XhXwX] = 1.",
"9.u.a.w.w.6.6.<.X 2 &XNX$X1 r f.k.b.K.Y.T.E.E.T.Y.f.o 3 6XvXcXrX;X;X;X;X;XlXbXlXlXcXcXlXlXvXvXlXlXvXvXlXlXlXlXlXcXkX2X;X*XQ * 3.",
"9.u.a.i.q.8.6.<.& , .XfXpX2 % f.k.j.l.N.J.L.K.P.L.z.X 3 6XvXkX2X-X=X*X-X;X;XjXlXlXlXlXlXlXlXlXlXlXlXlXlXlXlXlXlXlXrX;X-X^.h $ q.",
"9.u.i.u.9.8.7.2.S X d #X&Xg X Y k.k.j.k.v.v.n.m.M.h.o 3 4XvXlXrX2X;X;X;XwXjXvXvXvXvXbXbXvXcXvXvXvXvXvXbXbXbXcXvXvXlXrX2X*X6 X 3.",
"9.9.w.w.6.8.q.8.:.7   d  X .> ; R k.k.j.j.j.k.j.l.f.o 3 6XvXlXxXlXjXhXjXlXeX7X6X7X<X<X<X7X7X7X<X6X7X7X6X6X6X7X<X7XeXlXjX+X1 8 6.",
"t.u.9.9.7.8.q.e.6.K q % 2 2 O   9 d.k.k.k.k.k.k.k.d.% 3 6XvXlXlXxXxXcXxX,X] ( / C C ( ( / V / ( / v V / ( / V / / ] ,XeX/ $ <.y.",
"y.u.9.7.w.9.w.i.7.6.0.1.0 $ $ $   9 s.k.k.j.k.j.k.d.X 3 6XvXlXlXlXlXcX>X( C XX#Xv j .X$X .v .X&X.Xj C #X$X| c XXXXV ( oX3 8 w.u.",
"t.u.8.8.9.9.9.p.w.7.w.p.q.2.q.K 8   ; R j.k.j.j.k.d.o 3 6XvXlXxXlXxXhX| v %XZXMX_ C mXZX%X_ gXZXzXP ` MXZX#X( mXZX$Xz a 9 K u.i.",
"y.9.8.8.9.7.8.9.i.9.9.w.u.u.u.u.1.A % % F s.j.l.v.d.X 3 6XvXlXlXlXxXhX!./ &XNXmX_ v gXCX$X_ dXZXdXC ` mXBX.X( dXCXiXc 7 K w.u.i.",
"y.8.>.>.6.7.7.u.i.u.u.u.w.u.u.9.i.e.K 7 * ; D R f.R X 3 7XbXlXlXlXlXxX6X( ( [  .V j |. X} C |.XX-.z c |..X} c  .` c i L u.u.t.y.",
"e.8.6.>.6.q.e.9.9.9.9.u.u.u.u.u.r.w.8.2.H 8 7 7 9 9   1 @XrXlXvXbXvXvXcXhX>X| ] ] ] ] } ] ] ] [ } ] ] ] / V a a w q 2.t.9.u.t.u.",
"p.6.8.8.6.e.p.w.7.e.e.9.w.w.u.u.i.9.9.y.>.H L Z         < ) >X6X,X,X6X6X<X6X>X+X@X@X@X@X@X@X@X@X@X@X>X Xy o % 8 K w.9.8.9.y.y.y.",
"9.6.7.w.w.e.e.0.7.p.e.7.9.u.u.i.e.4.<.H 8 & = w 3 d d p O O 2 y l k 3 6 f f j f g w d y i d i i f i i t 7 G 2.2.i.a.t.9.9.t.9.9.",
"7.7.7.7.i.e.w.7.0.c.p.0.2.4.4.<.A $ * i d s i | 1X5XsX5X .e   r V.x.7   z _ _ _ / O     Z G G S G <.K <.1.q.u.y.w.i.9.t.y.9.9.9.",
"6.7.9.9.r.i.u.>.<.5.5.K 8 * $ 9 d d ( &XsX5XQ.U.'.].].'.U.V.% : F.I.V.w , _ ` _ / ,   O 0 >.6.7.9.u.e.i.u.8.9.9.w.i.w.y.y.t.t.9.",
"6.7.9.w.i.c.4.H * X X % +     Q 1XsX3X].'.].E.Y.P.J.J.F.m.j.* % G.R.P.E o + p s p 2 +   $ H 7.7.q.7.e.0.9.9.q.8.w.p.w.w.9.t.8.9.",
"0.0.w.w.q.L 8 X O 2 a ( -.h X E `.].'.I.F.P.Y.Y.L.Z.l.f.f.F X e G.T.T.G.; O _ ` ` _ g O   7 1.p.w.e.e.e.9.9.9.7.9.e.e.9.9.8.8.8.",
"0.e.w.L 7 X O 6 [ =XhXzXbXOX6 - f.J.I.T.T.T.L.N.j.R D % ; 9 e V.T.Y.T.H.r O p g g g 2 O   X G 9.e.e.r.8.6.8.9.9.w.p.r.q.9.9.7.7.",
"0.q.<.7   4 Q OXlXcXrX0XlXbX{ # 8 z.F.L.L.C.f.U ; * ; ; D C.G.T.T.Y.T.Y.B.: v ` _ ` / +     7 2.9.e.p.6.>.6.9.q.w.p.r.9.9.8.0.8.",
"e.4.q   < ^.;XqXqXqX:X:X:XkX8Xh   F z.v.f.F 7 ; ; W C.G.H.T.R.Y.Y.T.P.R.D.: > d g g d O O * % K 9.w.i.7.>.6.6.q.q.r.r.9.0.8.8.e.",
"e.1.%   6 ^.*X*X;X:X:X:X:XqXqX^.6 * T T ;   % U h.F.P.R.R.Y.Y.T.T.Y.T.R.G.; > _ ` } _ O % U % 8 2.7.e.6.:.6.7.7.q.r.e.i.i.8.6.0.",
"i.5.7   O 6 h ' ;XqX:X:X:X:X:X;X' . o o   . F j.k.N.J.L.P.P.T.Y.T.T.L.L.D.;   3 g g g O % Y ; X 1.9.0.7.:.6.7.7.u.e.e.w.w.7.6.6.",
"p.9.S o   6 =.*X*X=X:X:X:X:X:X=.6   . < + % R l.l.l.v.n.A.L.L.L.L.J.M.n.h.%   + + + + O % R D & <.0.0.7.>.6.7.9.i.i.w.q.9.7.7.6.",
"c.u.1.7   - =.~.h B ;X:X:X*X=.4     , *.> X Y d.d.d.s.d.d.h.h.h.h.f.d.d.Y o + g j z f   o T U % q q.u.9.8.6.7.9.i.i.w.9.w.w.7.7.",
"c.e.e.K &   > -   6 =.~.=.*.6 #     - <     $ $ $ % % $ $ % $ X $ $ $ % o     O O O +     % %   * L 4.4.1.9.8.8.e.p.i.9.u.e.0.0.",
"p.u.e.6.H 7 X   # ! *.h > #       6 ' 6     @ @ @ @ @ @ @ @ @ @ @ @ # @ @ @ @ a ,                 X X X 7 G <.8.e.p.p.w.w.u.q.9.",
"e.0.r.9.6.<.G 7 $ : > X $ X     . u =.B   @ X.o.o.o.o.o.o.o.o.o.o.o.o.o.$.$.;.oX} +     3 d d f z d p p > X 7 K 9.p.p.w.9.w.w.i.",
"7.7.e.y.6.8.u.q.1.G S H <.A     , 1 y w , # ..+.@.#.#.#.#.#.#.#.#.#.#.#.#.#.$.h > > 2 v iXMXfXgXmXmXgXdX Xf   & H e.p.9.e.w.e.i.",
"6.9.u.u.t.9.y.a.a.8.6.9.G &   h XX.X}  XXX6 # m X.O.O.O.@.@.@.@.@.@.@.@.@.X.4   s |.&XmXZXZXZXZXZXZXZXZXCX5Xh   7 K 8.7.q.w.e.i.",
"8.q.a.i.y.t.t.a.u.8.7.2.7   - W.4X8X5XdXMX} O @ n M M ..X.O.O.O.+.+.+.+.o.4 O d #XaXfXZXZXZXZXZXZXVXVXVXbX;XS.-   0 2.8.q.w.e.p.",
"8.i.c.a.a.t.a.a.y.8.8.K X   < I %./.).2XVXsX[ y # b n m M M M M M M M M n   +  .aXdXfXCXZXVXVXVXxX2X(./.W.~ I +   $ <.w.e.9.u.u.",
"t.a.c.c.y.u.i.c.u.8.7.S * X   . o 5 ! %.W.)._.@Xu @ @ 4 b n n n n n n n @   3 %XdXpXsXVXxX).)./.*.! I u # .     $ 8 <.8.e.q.e.u.",
"t.a.c.a.a.u.i.p.i.e.q.5.3.K 7 $ $   . . 5 I %.W./.&.u 4 6 6 # . # % ; % o   3 %X4X).(./.%.! I 5 - .     $ $ $ 8 L 5.7.8.e.e.9.u.",
",.t.a.i.t.u.u.i.r.r.w.9.9.9.4.<.K A $ $ % o . - N ! %.&./.OXw   X H <.<.S   - *.%.! N 5 - . . X % $ & A 1.1.:.:.c.c.7.6.9.e.i.u.",
",.t.u.u.t.u.9.9.e.e.w.8.6.8.y.y.8.q.<.H G * X X o # 5 u ! ~ -   8 5.0.8.1.% . - . . X X $ $ 7 G <.3.3.q.i.a.8.6.e.g.q.8.8.e.i.w.",
",.8.8.9.9.w.9.u.w.w.9.9.8.7.9.9.9.u.8.6.6.5.1.K 7 $ X   O .   $ L r.7.6.6.q X X % $ 8 L 3.1.3.9.9.a.u.u.i.c.w.6.w.p.w.6.8.q.i.w.",
"t.9.9.9.9.u.8.7.w.9.9.w.8.8.9.y.u.y.7.:.9.p.q.9.5.3.K 0 $ X $ A 7.p.e.8.8.<.A L 5.5.q.9.y.u.t.t.9.u.u.u.i.p.w.9.7.p.e.9.8.6.9.w.",
"9.u.y.9.9.9.8.8.w.9.9.q.w.9.8.u.u.y.9.>.9.i.6.9.i.p.q.3.:.K J 5.q.r.i.y.e.e.7.q.i.i.u.9.9.9.9.8.8.y.9.i.i.w.w.9.w.r.e.9.9.9.8.q.",
"w.w.p.u.9.9.8.7.e.8.9.w.e.q.8.i.u.9.t.8.9.u.8.,.q.p.p.y.8.8.p.i.q.c.p.i.i.i.i.9.w.w.9.8.9.9.9.9.8.y.u.u.a.u.u.9.w.r.9.9.q.q.8.9."
};
