/* XPM */
static char *result[] = {
/* columns rows colors chars-per-pixel */
"64 64 182 2 ",
"   c #7D2919",
".  c #187D04",
"X  c #2C770C",
"o  c #346A1A",
"O  c #367916",
"+  c #3D7C14",
"@  c #3B7B19",
"#  c #595813",
"$  c #6C4915",
"%  c #70441A",
"&  c #69541A",
"*  c #476516",
"=  c #467619",
"-  c #545D35",
";  c #6F4229",
":  c #467424",
">  c #457922",
",  c #4E7927",
"<  c #52752D",
"1  c #527C28",
"2  c #576E34",
"3  c #597833",
"4  c #64763C",
"5  c #6C743B",
"6  c #697C3A",
"7  c #7F5C5B",
"8  c #6C6545",
"9  c #687647",
"0  c #767749",
"q  c #7F7352",
"w  c #B1181D",
"e  c #99281E",
"r  c #86341E",
"t  c #96341D",
"y  c #A71D22",
"u  c #AF1B20",
"i  c #BF1A21",
"p  c #9B2724",
"a  c #AB2121",
"s  c #B6262F",
"d  c #AA3135",
"f  c #BA3339",
"g  c #D3141C",
"h  c #DA161F",
"j  c #D4181F",
"k  c #EB161E",
"l  c #D20F24",
"z  c #C51924",
"x  c #D71722",
"c  c #ED1720",
"v  c #E41B23",
"b  c #EC1B23",
"n  c #F41320",
"m  c #F11A22",
"M  c #CB2B31",
"N  c #D32C33",
"B  c #C7373B",
"V  c #F02F36",
"C  c #EF383F",
"Z  c #A73E42",
"A  c #BD4245",
"S  c #A4575A",
"D  c #B85259",
"F  c #8A604E",
"G  c #807E4E",
"H  c #847B56",
"J  c #8D745C",
"K  c #8F7A5E",
"L  c #95745F",
"P  c #AD605F",
"I  c #BD5E61",
"U  c #8A6C65",
"Y  c #9A6364",
"T  c #907060",
"R  c #957862",
"E  c #A56768",
"W  c #B96467",
"Q  c #A27A6A",
"!  c #AB7D6F",
"~  c #B96D70",
"^  c #AD7774",
"/  c #B27577",
"(  c #B37D76",
")  c #B27779",
"_  c #B67A7B",
"`  c #C64348",
"'  c #C4595D",
"]  c #D3777B",
"[  c #F36F76",
"{  c #EC7278",
"}  c #FC7178",
"|  c #1C8F03",
" . c #1E9302",
".. c #1E9A02",
"X. c #258606",
"o. c #238A05",
"O. c #2B850A",
"+. c #2D8B0B",
"@. c #338C0C",
"#. c #3B880F",
"$. c #249504",
"%. c #2A9606",
"&. c #259A04",
"*. c #2C9B06",
"=. c #2E950A",
"-. c #2E9A08",
";. c #319507",
":. c #329D07",
">. c #32910A",
",. c #349C08",
"<. c #3A9E09",
"1. c #2E8712",
"2. c #348413",
"3. c #398816",
"4. c #26A205",
"5. c #2AA307",
"6. c #2DA206",
"7. c #33A207",
"8. c #38A307",
"9. c #34A907",
"0. c #3AAA07",
"q. c #35A208",
"w. c #3BA309",
"e. c #36A908",
"r. c #3BAA09",
"t. c #3CB10A",
"y. c #419F0B",
"u. c #46841E",
"i. c #42A30B",
"p. c #41AC0A",
"a. c #43B10A",
"s. c #43A214",
"d. c #458627",
"f. c #4B8523",
"g. c #4F8C26",
"h. c #43852A",
"j. c #55833E",
"k. c #AA8370",
"l. c #B48176",
"z. c #B7827B",
"x. c #BC847E",
"c. c #BF8081",
"v. c #AB9392",
"b. c #ACA8A7",
"n. c #B1A3A3",
"m. c #B0B5AA",
"M. c #B5B9B4",
"N. c #BABABA",
"B. c #C48282",
"V. c #C98385",
"C. c #CD8A87",
"Z. c #CE8789",
"A. c #D0868A",
"S. c #D38A8C",
"D. c #D98D8F",
"F. c #D58E91",
"G. c #DD8B92",
"H. c #DA9294",
"J. c #E38E96",
"K. c #E39296",
"L. c #E69399",
"P. c #EB949B",
"I. c #ED999C",
"U. c #F1939D",
"Y. c #F39B9F",
"T. c #EB98A0",
"R. c #FC97A7",
"E. c #F59CA1",
"W. c #FB9DA5",
"Q. c #FF9EA9",
"!. c #FEA1A6",
"~. c #FFA2AA",
"^. c #BFC7BC",
"/. c #CCC9C9",
"(. c #D1CFCF",
"). c #C9D2D1",
"_. c #D8D6D7",
"`. c #DAE0E0",
"'. c #E4E9E9",
"]. c #F1EFEE",
"[. c #F2EFF2",
"{. c #FFFFFF",
/* pixels */
"i.,.;.:.,.$. .$.$.;.:.<.;.:.:.:.7.7.7.6.*.&.%.%.%.<.i.7.,.,.6.9.8.p.9.6.*.8.8.:.:.*.7.8.:.*.0.7.$.*.*.*.:.*.*.:.:.%.%.%.-.%.$.:.",
"i.,.$.-.,.$.| $.%.:.=.,.=.-.,.:.:.7.7.*.*.-.%.%.$.;.8.8.7.:.*.6.0.r.9.&.*.7.8.7.:.6.9.:.:.%.9.6.*.*.*.*.7.*.:.8.:.*.-.-.%.%.%.*.",
"y.;.%.$.-.$. .$.%.%.=.:.%.:.<.:.7.7.7.*.%.%.*.-.$.o.:.<.8.*.*.7.e.0.t.&.$.6.7.7.:.*.e.:.<.*.9.*.$.$.-.*.*.6.r.i.:.%.:.:.$.$.*.*.",
"y.<.=.$.$.$. .$.%.%.;.;.%.-.q.*.*.8.7.-.%.$.*.:.%.%.*.7.7.*.*.9.7.6.t.4.$.*.6.e.7.&.8.-.:.*.7.*.$.*.*.%.7.7.i.i.:.%.,.:.$.%.:.;.",
"<.<.:.%.%.$. .$.$.%.,.,.%.%.<.&.%.r.:.,.:.$.$.7.%.%.:.:.7.:.*.*.7.*.9.6.$.&.6.7.7.&.8.7.7.*.7.%.%.:.*.&.:.7.w.r.*.-.7.:.$.%.:.:.",
",.;.;.%.*.%.$.%.$.%.,.;.%.,.<.:.*.:.:.,.,.$.$.*.-.:.8.:.-.:.*.*.7.*.9.6.&.*.&.*.7.6.e.:.*.*.*.%.:.:.$.&.*.7.p.8.-.:.<.:.*.-.,.,.",
";.%.%.;.%.%.*.%.o.&.,.<.,.<.<.:.:.<.:.<.<.:.*.*.-.:.<.<.:.*.*.*.*.*.*.6.6.&.$.&.7.9.7.6.*.*.:.-.<.8.*.$.*.7.i.p.:.:.:.,.*.*.,.,.",
",.%.%.=.%.%.%.%.%.$.%.<.<.<.<.:.7.w.,.,.<.q.7.:.7.:.<.i.-.%.*.*.*.7.*.6.6.&.$.&.6.7.6.*.*.*.7.7.7.i.*. .*.:.i.w.7.:.<.:.*.*.:.<.",
"=.$.$.$.%.%.%.%.:.%.=.<.<.<.;.;.:.w.w.<.w.8.7.r.i.7.:.<.:.*.*.*.&.*.*.6.*.-.*.&.*.&.&.7.6.*.:.r.7.7.-.$.*.:.i.:.*.%.:.:.:.:.7.:.",
"%.$.%.%.;.%.=.%.<.%.=.<.<.y.;.%.,.7.q.w.w.7.7.0.r.7.*.*.-.6.*.%.*.$.&.7.7.:.7.*.*.&.*.:.6.*.*.0.7.7.*.&.*.,.,.&. .$.*.7.:.7.8.:.",
"<.*.*.*.$.*.:.$.;.:.;.,.<.<.:.:.7.7.7.i.r.6.7.7.r.:.*.*.*.7.8.*.$.$.*.*.6.w.w.*.*.*.*.*.*.7.:.0.7.6. .&.7.7.*.$. . .*.7.w.8.8.7.",
"8.*.*.:.$.*.:.%.%.:.%.:.;.,.:.:.*.6.0.r.w.7.*.0.8.:.7.7.:.*.:.;.%.%.:.-.*.w.w.,.-.7.*.*.*.r.,.8.7.*. .$.*.w.-.%.$.$.-.7.w.7.7.7.",
"7.*.:.:.*.%.,.:.%.:.%.*.:.-.:.:.7.*.6.0.8.9.6.8.e.*.6.*.-.*.:.<.$.$.:.-.*.8.<.,.-.:.;.*.7.7.:.7.7.*.&.&.*.q.7.*.&.*.,.r.q.:.*.6.",
"%.-.8.7.*.%.,.*.*.-.%.*.%.-.:.:.6.*.*.7.0.e.*.7.7.*.*.:.*.$.,.y.%.$.-.:.*.:.q.:.-.:.,.*.:.:.,.7.7.7.*.*.*.7.7.7.&.%.;.6.q.7.6.6.",
"&.:.:.7.6.*.:.*.:.*.-.*.*.*.:.*.6.7.*.:.7.0.7.:.7.*.:.:.*. .,.i.,.$.%.7.*.*.:.*.-.:.:.%.*.:.:.:.:.:.*.6.*.,.7.7.*.&.&.&.6.7.6.*.",
"*.7.*.:.*.*.*.*.7.:.:.*.&.%.:.*.*.*.*.:.7.r.r.q.7.7.<.7.$. .,.y.,.%.%.:.7.:.:.*.:.;.<.*.:.:.:.:.:.:.:.6.*.:.:.6.7.&.&.6.6.9.7.6.",
"4.7.7.6.&.4.*.&.*.*.*.*.*.%.6.7.:.&.*.*.7.p.i.8.7.*.w.<.*. .%.w.<.$.&.:.:.:.-.%.:.<.,.-.,.<.q.*.:.:.7.7.*.:.7.:.r.*.&.&.6.9.7.6.",
"&.e.7.*.&...&.*.&.%.*.&.:.*.*.8.6.&.&.*.:.p.r.8.q.*.,.w.w.*.%.,.w.$.*.$.:.-.:.-.<.s.<.:.-.7.q.7.8.:.8.7.6.&.q.0.0.7.6.&.6.7.e.6.",
"*.9.e.&.$...6.7.*.%.*.*.:.:.*.8.7.&.&.%.:.r.8.7.q.7.r.:.:.*.*.:.w.*.*.*.%.-.:.:.:.<.-.:.q.5.q.6.8.<.8.e.6.*.q.a.r.r.7.6.5.9.e.6.",
"*.5.9.*.$.*.9.7.*.-.-.:.8.<.%.7.7.$.$.*.-.q.7.7.7.:.r.,.*.*.*.,.,.*.:.*.$.%.;.:.;.<.-.:.q.:.q.6.w.8.r.9.6.7.7.a.r.e.5.9.0.e.6.9.",
"7.5.4.6.*.7.7.*.*.*.%.7.<.w.-.7.6.$.$.%.:.8.:.*.7.7.8.w.*.*.*.:.:.$.,.,.$.%.=.-.<.<.&.q.q.6.q.7.8.i.w.7.7.6.q.a.a.e.7.7.0.e.4.*.",
"r.7.5.6.7.r.7.6.*.%.%.8.:.8.:.7.6.$.*.*.:.*.6.6.:.:.8.w.*.$.%.%.%.&.<.q.$.*.%.%.,.<.-.&.q.6.7.<.8.w.w.7.*.6.7.r.a.t.6.7.r.0.4.*.",
"r.7.7.*.7.r.7.&.&.*.:.i.,.:.:.7.*.$.*.;.6 G , O.&.:.<.:.*.$.*.$.4.&.;.=.&.*.*.&.q.q.&.&.6.6.*.-.*.r.7.*.&.&.6.0.a.r.5.6.e.e.6.*.",
"<.7.:.:.,.8.:.&.&.%.*.w.w.:.:.r.*.%.:.+ A.Q.J.! < o.:.:.*.*.o.X.X $ t t % X +.$.6.6.%.&.*.7.-.$.&.9.:.:.6.*.&.7.r.0.7.*.6.9.6.*.",
"7.8.q.7.%.:.:.$. .$.*.8.i.,.*.,.:.*.7.@.Q Q.W.!.P.L O &.8.*.j.M.b.f n n D N.m.h.&.7.5.&.:.7.*.-.&.6.*.*.*.&.&.*.q.e.6.&.4.6.*.6.",
"*.7.r.*.%.$.%.%.$. .&.r.p.,.%.:.:.6.8.7.< J.W.Y.W.Q.V.3 7.u./.{.{.N.x N (.{.{.m.1.e.6.%.-.<.w.6.*.6.$.$.%.%.*.*.7.7.....&.6.:.*.",
"*.7.7.:.:.$.$.%. .| ..r.i.,.$.*.:.q.w.<.%.0 E.E.Y.P.~.L.5 j.].{.(./.z ` ].[.{._.d.q.6.:.q.<.r.e.9.6.$.&.%.*.*.*.7.6.4...&.6.,.7.",
"*.*.r.8.:.&.o.$.$. .*.i.i.q.*.*.-.8.7.<.w.O.R R.W.V.B.!.U.U _.{.N.n.x B M.b.{.^.2.6.6.7.q.q.e.r.9.7.*.&.%.:.&.*.7.*.&... .*.7.q.",
"6.7.7.7.*.*.%.o.%. .*.w.<.r.q.*.:.7.w.,.:.*.O.T E.W.B._ E.P.v.'.`.I k v E )._.9 $.*.7.6.w.q.r.t.9.7.*.7.:.-.*.*.6.&.4.&...*.*.6.",
"*.-.:.*.$.*.:.%.%.$.-.w.w.,.q.7.7.7.7.:.&.$.*.X.q U.~.C.^ I.W d f h b b x B s # 6.*.6.6.,.q.0.r.9.6.7.7.r.*.*.7.*.*.4.&.$.*.6.5.",
"*.7.-.*.%.*.:.,.$.%.:.i.:.*.*.,.7.>.= 1 , = @ +.. 2 S.~.L.) A g h k m m b k z = 6.-.q.*.*.q.:.7.0.:.-.8.r.,.:.7.*.*.*.&.-.*.7.6.",
"5.7.*.%.-.&.:.:.&.%.:.w.:.*.7.7.u.! K.P.L.J.A.l.K 2 - E T.] w z a u z z w w ; 2.>.$.5.&.-.<.-.*.0.7.%.;.w.7.7.7.:.*.&.*.:.7.7.7.",
"6.7.&.&.*.%.:.7.:.$.:.w.:.*.7.6.6 R.~.Y.!.!.!.!.!.R.C.Y 7 Z c b i a u w a W H.V.Q 0 > X.&.:.:.*.7.7.%.;.<.8.7.6.*.*.&.*.7.7.:.7.",
"6.6.$.&.*.%.*.:.7.-.:.:.7.:.7.7.>.J I.Q.Y.Y.Y.D.c.F.I.!.F.d c b b j M ` S T.!.~.!.Q.G.R 3 +.*.$.:.:.;.$.:.p.8.*.&.&.$.*.:.*.6.7.",
"6.*. . .$.%.%.*.q.6.7.7.7.7.7.*.8.@.4 B.E.Q.Y.Y.S.B.) _ _ f k b b c } ] ~ _ / c.S.H.!.!.P.Q @ $.:.<.:.$.7.w.:.%.&.&.&.*.,.7.6.7.",
":.$.$. .$.;.:.*.:.:.*.:.7.7.6.7.:.7.$.2.5 l.K.W.~.~.!.!.H.` k b k C { S P.!.Y.K.A.Z.T.E.E.Q.V.@ *.<.;.$.*.q.:.%.&.6.6.6.:.6.6.6.",
"7.$.*.&.$.,.<.:.%.,.:.-.:.:.7.7.w.*.*.6...+.g.0 K l.B.Z.F.P j m V [ ` Y F U C.E.!.~.!.!.W.W.R.4 &.:.:.%.*.6.7.*.*.e.6.&.*.6.6.6.",
"*.$.%.-.:.:.<.-.%.<.,.*.:.:.:.:.<.:.&.*.&.6.:.*.$.@.@.2.u.3.r h N ' E I.F.8 o 3 H R ( c.z.! 0 1.%.<.;.-.*.6.*.*.7.7.*.&.6.*.*.*.",
"$.$.%.*.8.:.:.%.%.<.<.%.%.:.:.:.<.,.:.:.:.;.,.w.r.8.9.5.5.#.e   F U.L.^ L.Q.k.h.$.o.O.+.+.X.| $.%.,.;.:.*.6.6.*.7.7.*.6.4.*.*.&.",
"$.%.-.*.<.8.*. .%.y.<.-.%.:.:.:.7.:.<.8.:.:.<.:.:.w.7.4.*.& l # g.Z.~.L./ H.~.V.> *.:.*.&.*.%.%.%.-.:.:.*.*.:.*.:.7.:.6.6.6.6.*.",
"%.%.:.*.w.<.6.$.$.8.8.%.%.:.:.*.-.:.8.r.:.:.:.%.*.7.<.6.>.e y + 9., V.~.I._ A.!.V.> -.:.$.&.%.:.:.%.,.*.*.*.%.*.:.,.:.:.*.*.*.*.",
"=.=.:.:.,.w.w.&.$.;.i.:.$.%.:.*.*.-.8.i.w.:.:.%.*.:.<.*.o z r $.7.8.: B.!.Y.A.E.!.B.= *.-.%.:.:.,.:.<.*.&.*.-.-.:.w.:.%.*.&.&.&.",
";.%.:.*.<.w.w.*.$.*.i.:.&.$.%.*.*.7.7.i.,.:.,.%.*.-.<.$.% z * ..<.i.*.O ( Q.!.Y.I.!.z.@.7.:.:.*.;.,.<.%.$.&.*.%.:.w.<.-.*.*.$.*.",
";.:.,.:.w.q.,.:.*.*.i.:.*.*.%.*.7.:.8.8.7.-.:.*.*.-.7.@.e p 2.$.,.y.,.$.X J P.!.Y.I.L.k.$.:.*.-.-.:.r.$.o.$.%.-.:.<.<.-.*.&.*.%.",
";.,.:.:.q.q.,.:.$.:.i.:.*.:.%.$.*.q.w.<.:.-.-.:.&.-.5.= z & .. .;.i.,.%.&.o.6 x.!.!.!.C.2.*.-.*.%.:.w.$.| o.%.;.;.<.<.-.-.&.$.:.",
",.,.<.,.:.r.r.*.*.:.<.%.%.:.*. .-.w.w.:.-.-.:.:.&.-.5.& a #.7.$.%.<.,.%.&.*.*.O 0 z.L.x.3.6.:.*.%.%.,.$.| $.%.%.;.<.,.:.7.&.$.=.",
"<.:.<.;.*.:.-.*.*.%.*.%.$.:.*.&.*.8.r.:.%.-.<.:.%.-.4.& # e.w.-.*.,.w.-.&.$.:.-...+.f.d.*.*.q.*.=.%.:.%.| $.%.*.:.:.,.:.:.%.$.%.",
"i.-.,.:.$.*.*.$.%.%.:.*.$.%.*.&.*.7.q.:.$.*.,.*.| &.&.=.w.w.q.*.-.<.w.-.$.&.%.:.*.4.6.*.*.*.w.:.:.=.:.%.$.$.%.*.:.8.:.:.*.=.$.$.",
"i.*.:.:.$.*.*.*.;.:.:.*.$.$.$.&.&.7.7.-.$.$.q.%. . .&.,.w.w.q.*.*.<.<.$.*.*.$.:.r.:.$.:.*.&.<.<.,.;.:.-.$.%.$.*.7.:.:.-.:.:.-.%.",
"i.q.,.$. .*.7.7.:.:.:.&.$.%.$.$.7.7.6.7.$.$.:.&.| $.%.*.w.w.:.*.*.<.<.$.*.:.*.<.w.r.%.$.$.*.<.w.;.,.:.:.%.*.%.*.:.r.7.*.:.:.:.%.",
"w.:.<.$. .&.8.7.7.7.*.$.&.%.$.$.7.:.&.6.&.*.%.%. .$.-.-.q.w.*.*.*.*.*.$.$.:.8.7.<.w.:.$.$.-.:.<.<.;.:.=.%.;.%.*.;.i.8.:.:.:.;.-.",
":.-.<.*. .*.e.0.7.:.%.*.&.%.%.$.r.r.&.6.7.-.*.$. . .*.*.,.:.$.$.*.&.*.*.&.%.8.r.w.r.7.$.$.$.%.<.<.:.%.-.:.:.%.$.*.8.w.:.*.:.:.:.",
"%.%.,.7. .*.7.7.9.&.*.*.*.$.:.%.:.q.6.6.*.-.*.&.$.$.&.*.q.-.$.&.:.&.*.:.*.*.7.0.q.q.<.-.$.$.%.:.<.;.%.%.:.:.:.*.$.,.7.-.,.:.:.:.",
"$.-.7.:.6.&.6.7.6.*.$.&.*.$.%.%.*.-.7.6.*.-.*.&. .%.-.-.7.&.&.e.9.&.*.*.*.*.-.:.,.q.,.,.*.$.%.%.;.;.%.%.%.:.:.*.$.$.*.%.,.:.:.8.",
"&.*.8.7.6.4.6.e.9.&.$.*.*.%.%.:.*.7.7.*.*.*.&.&. .%.r.e.5.4.5.t.9.4.4.&.7.*.-.:.:.,.:.,.:.*.*.-.:.-.%.*.:.:.%.*.%.%.%.=.,.:.:.r.",
"*.7.p.0.9.6.9.r.7.$.*.:.:.*.*.:.7.7.:.*.*.*.$.&...-.q.w.5.4.4.t.6.*.4.6.:.*.:.-.:.:.:.:.7.*.*.:.:.7.-.%.:.:.%.%.:.;.%.%.,.%.,.7.",
"6.q.p.r.9.6.q.p.7.*.;.:.7.:.7.:.-.:.:.-.*.$.%. . .&.7.7.6.6.6.0.*.&.*.*.*.%.-.-.:.:.:.:.w.7.7.:.:.w.%.%.:.:.$.$.<.<.%.%.,.:.:.:.",
"4.7.p.r.6.7.,.w.q.:.:.:.:.:.7.*.%.:.:.-.%.%.%.$. .$.:.*.6.7.6.e.*.&.-.:.*.*.$.:.8.:.:.w.w.7.r.:.*.w.7.:.:.:.$.$.<.<.%.$.:.:.:.7.",
"..6.0.r.6.7.7.q.,.<.,.-.&.6.:.*.*.:.:.$.%.%.%.o. .$.-.-.&.*.q.7.*.%.*.-.:.-.%.%.8.8.q.q.:.7.<.:.-.,.q.q.:.*. .$.<.<.:.$.:.:.:.7.",
"..&.7.7.*.7.*.:.,.:.:.*.$.&.*.*.$.:.%.o.$.:.,.$.$.&.-.*.$.$.,.q.-.:.%.$.:.;.%.%.,.w.q.q.:.<.7.:.*.q.7.:.w.8.&.$.,.i.:.$.%.:.7.:.",
"&.&.*.*.6.:.*.*.:.:.-.%.$.&.*.*.*.:.*.| $.<.,.*.-.%.-.*.$.$.:.:.;.<.%.$.*.*.-.*.<.w.7.:.7.:.7.7.*.7.7.:.<.w.7.&.*.i.;.$.$.*.:.7.",
"&.6.*.&.*.*.&.*.:.-.*.:.-.&.*.6.7.7.$. .*.8.;.*.,.:.*.%.$.%.:.,.-.<.:.&.*.*.%.:.,.w.7.*.*.:.&.*.&.7.7.7.8.8.:.*.%.8.7.*.&.%.-.:.",
":.:.6.*.*.*.&.$.:.*.*.:.:.-.*.6.7.6.*. .*.7.$.&.<.<.:.-.$.$.,.<.:.<.8.6.:.:.*.:.<.:.7.*.*.*.&.&.&.*.*.e.7.:.7.*.:.<.:.*.*.%.$.:.",
"q.,.q.7.*.*.&.*.-.*.%.:.:.%.*.7.7.&.6.$.:.7.&.$.:.<.7.-.%.&.w.w.,.y.7.9.<.<.:.:.,.*.*.&.*.*.7.&.&.6.:.7.0.7.:.:.;.<.%.%.:.*.%.-."
};
